<?xml version="1.0" encoding="UTF-8"?>
<svg viewBox="0 0 25 22" version="1.1" xmlns="http://www.w3.org/2000/svg" xmlns:xlink="http://www.w3.org/1999/xlink">
    <!-- Generator: Sketch 49 (51002) - http://www.bohemiancoding.com/sketch -->
    <title>credit-cards-payment copy 2</title>
    <desc>Created with Sketch.</desc>
    <defs></defs>
    <g id="Offline-disbursement" stroke="none" stroke-width="1" fill="none" fill-rule="evenodd">
        <g id="Cash" transform="translate(-527.000000, -1996.000000)" fill="#9A9A9A" fill-rule="nonzero">
            <g id="credit-cards-payment-copy-2" transform="translate(527.000000, 1996.000000)">
                <path d="M24.0453431,3.22676906 L8.73415033,0.0350468975 C8.08635621,-0.09995005 7.44428105,0.311720224 7.30723039,0.949807137 L7.01633987,2.79115745 L24.682884,6.4736569 L24.9737745,4.63230658 C25.1108252,3.99446109 24.6931373,3.36180625 24.0453431,3.22676906 Z" id="Shape"></path>
                <path d="M17.6065768,6.86416223 C17.4277369,6.22977717 16.7546977,5.85480353 16.110866,6.03068182 L13.2042484,6.82549395 L6.35204248,5.39706127 L5.59844771,8.90436647 L0.88995098,10.1916459 C0.246160131,10.3675644 -0.134517974,11.0305181 0.0440359477,11.664702 L2.69754902,21.0834249 C2.87638889,21.7175685 3.54946895,22.0927836 4.1932598,21.9166639 L19.4141748,17.7559815 C20.0579657,17.5798216 20.4386438,16.9171093 20.2600899,16.282684 L19.804616,14.6657787 L21.511683,15.0212773 C22.1594771,15.1565157 22.8015523,14.7448454 22.9386029,14.1067585 L24.0186275,9.07960095 L17.8696895,7.79791459 L17.6065768,6.86416223 Z M19.3643791,11.6511419 L19.7408088,9.89871656 C19.7973448,9.63632756 20.0614788,9.46708847 20.3278186,9.52249556 L22.1069036,9.89352592 C22.3735294,9.94921467 22.5453431,10.2091089 22.4890931,10.4717394 L22.1126634,12.2241647 C22.0561275,12.4865537 21.7920343,12.6560342 21.5256536,12.6003857 L19.7465686,12.2295968 C19.4796977,12.1737068 19.3078431,11.9135309 19.3643791,11.6511419 Z M1.15482026,11.1315546 L5.36703431,9.98051948 L15.305719,7.26380148 L16.3752042,6.97111361 C16.3947304,6.96592297 16.4142157,6.96346848 16.4332516,6.96346848 C16.5190359,6.96346848 16.6216095,7.01891581 16.6515931,7.12510268 L16.777165,7.57053225 L17.1705882,8.96693584 L1.51748366,13.2456349 L0.998488562,11.4040432 C0.965972222,11.288481 1.03754085,11.1635836 1.15482026,11.1315546 Z M19.3055964,16.5433025 C19.3256127,16.6147644 19.304616,16.6738733 19.2833333,16.7108516 C19.2623366,16.7477897 19.2218137,16.796115 19.1492647,16.8157912 L3.92863562,20.9764735 C3.90939542,20.9816642 3.88962418,20.9843601 3.87058824,20.9843601 C3.78480392,20.9843601 3.68223039,20.9286713 3.65224673,20.8224845 L2.10453431,15.3286921 L17.7576389,11.0497516 L18.7123366,14.4380744 L19.3055964,16.5433025 Z" id="Shape"></path>
                <path d="M6.38803105,16.9192419 C6.31499183,16.6605547 6.04084967,16.507813 5.77822712,16.5795163 L4.00065359,17.0655858 C3.73827614,17.1372891 3.58296569,17.4075647 3.6560049,17.6662518 L4.14922386,19.4169469 C4.22226307,19.6756341 4.49640523,19.8283758 4.75902778,19.7564311 L6.53660131,19.270603 C6.79922386,19.1988997 6.95428922,18.9286242 6.8814951,18.669937 L6.38803105,16.9192419 Z" id="Shape"></path>
            </g>
        </g>
    </g>
</svg>
