<?xml version="1.0" encoding="UTF-8"?>
<svg viewBox="0 0 25 25" version="1.1" xmlns="http://www.w3.org/2000/svg" xmlns:xlink="http://www.w3.org/1999/xlink">
    <!-- Generator: Sketch 49 (51002) - http://www.bohemiancoding.com/sketch -->
    <title>bank-building copy</title>
    <desc>Created with Sketch.</desc>
    <defs></defs>
    <g id="Offline-disbursement" stroke="none" stroke-width="1" fill="none" fill-rule="evenodd">
        <g id="Cash" transform="translate(-315.000000, -1994.000000)" fill="#9A9A9A" fill-rule="nonzero">
            <g id="bank-building-copy" transform="translate(315.000000, 1994.000000)">
                <path d="M23.3567708,22.0337847 L1.1125,22.0337847 C0.497916667,22.0337847 0,22.5268859 0,23.1360413 C0,23.7441651 0.497916667,24.2372663 1.1125,24.2372663 L23.35625,24.2372663 C23.9708333,24.2372663 24.46875,23.7441651 24.46875,23.1360413 C24.4682292,22.5268859 23.9703125,22.0337847 23.3567708,22.0337847 Z" id="Shape"></path>
                <path d="M2.50260417,19.169568 C1.88802083,19.169568 1.39010417,19.6626692 1.39010417,20.2713088 C1.39010417,20.8799484 1.88802083,21.3735654 2.50260417,21.3735654 L21.9661458,21.3735654 C22.5807292,21.3735654 23.0786458,20.8799484 23.0786458,20.2713088 C23.0786458,19.6626692 22.5807292,19.169568 21.9661458,19.169568 L21.6885417,19.169568 L21.6885417,9.25596389 L21.9661458,9.25596389 C22.2739583,9.25596389 22.521875,9.00941328 22.521875,8.70560928 C22.521875,8.40180529 22.2729167,8.15525467 21.9661458,8.15525467 L2.50260417,8.15525467 C2.1953125,8.15525467 1.946875,8.40180529 1.946875,8.70560928 C1.946875,9.00941328 2.19583333,9.25596389 2.50260417,9.25596389 L2.78072917,9.25596389 L2.78072917,19.1690522 L2.50260417,19.1690522 L2.50260417,19.169568 Z M19.4635417,9.25596389 L19.4635417,19.1690522 L16.1270833,19.1690522 L16.1270833,9.25596389 L19.4635417,9.25596389 Z M13.9020833,9.25596389 L13.9020833,19.1690522 L10.565625,19.1690522 L10.565625,9.25596389 L13.9020833,9.25596389 Z M5.0046875,9.25596389 L8.34114583,9.25596389 L8.34114583,19.1690522 L5.0046875,19.1690522 L5.0046875,9.25596389 Z" id="Shape"></path>
                <path d="M1.1125,7.16492585 L23.35625,7.16492585 C23.3598958,7.16492585 23.3640625,7.16492585 23.3671875,7.16492585 C23.9822917,7.16492585 24.4796875,6.67182463 24.4796875,6.06318504 C24.4796875,5.57936815 24.1651042,5.16931012 23.728125,5.0207608 L12.6916667,0.102643456 C12.4015625,-0.0263056093 12.0697917,-0.0263056093 11.7791667,0.102643456 L0.65625,5.05892972 C0.177604167,5.27246937 -0.0854166667,5.78723404 0.025,6.29477756 C0.134895833,6.80232108 0.588020833,7.16492585 1.1125,7.16492585 Z" id="Shape"></path>
            </g>
        </g>
    </g>
</svg>
