<svg id="Isolation_Mode" xmlns="http://www.w3.org/2000/svg" viewBox="0 0 156.2 105.4"><style>.st0,.st1{fill-rule:evenodd;clip-rule:evenodd;fill:#a5cd39}.st1{fill:#006d38}</style><path class="st0" d="M156.2 73.8V31.6C156.2 14.2 142 0 124.6 0h-7.5v18.9c0 26.1-21.3 47.4-47.4 47.4H50.8v7.5c0 17.4 14.2 31.6 31.6 31.6h42.1c17.5 0 31.7-14.2 31.7-31.6"/><path class="st1" d="M101.3 18.9V0H82.4C65 0 50.8 14.2 50.8 31.6v18.8h18.8c17.5.1 31.7-14.1 31.7-31.5m-87.9-4.3H0V28c0 12.4 10.1 22.5 22.5 22.5h13.4V37c0-12.4-10.1-22.4-22.5-22.4"/></svg>