<svg xmlns="http://www.w3.org/2000/svg" viewBox="0 0 492.9 947.4"><g fill="#F06C2F"><path d="M169.4 365.4c-4.7 3-6.1 9.3-3.1 14.1 1.1 1.7 2.7 3 4.4 3.8 3 1.4 6.7 1.2 9.7-.7 4.8-3 6.1-9.3 3.1-14.1-3-4.7-9.3-6.1-14.1-3.1zM127.8 336.8c.7.5 1.4 1 2.1 1.3 4.1 1.9 9.2.8 12.2-3 3.5-4.4 2.8-10.8-1.6-14.3s-10.8-2.7-14.3 1.6c-3.5 4.5-2.8 10.9 1.6 14.4zM147.4 152.3c-5.2-2.1-11.1.4-13.2 5.7-2 5.1.3 10.8 5.3 13 .2.1.3.1.4.2 5.2 2.1 11.1-.5 13.2-5.7 2-5.2-.5-11.1-5.7-13.2zM149.1 39.1c.4.2.8.4 1.2.5 5.4 1.6 11.1-1.4 12.7-6.8 1.6-5.4-1.4-11.1-6.8-12.7-5.4-1.6-11.1 1.4-12.7 6.8-1.4 4.9 1.1 10.1 5.6 12.2zM136.9 101.6c.3.2.7.3 1.1.4 5.3 1.7 11.1-1.2 12.8-6.6 1.7-5.4-1.2-11.1-6.6-12.8-5.3-1.7-11.1 1.2-12.8 6.6-1.6 5 .8 10.3 5.5 12.4zM159 250.8c-3.2 4.6-2 11 2.7 14.1l1.5.9c4.4 2 9.8.6 12.6-3.6 3.1-4.6 2-11-2.7-14.1-4.6-3.2-10.9-1.9-14.1 2.7zM196.4 420.1c-5.4 1.3-8.8 6.8-7.5 12.3.8 3.1 2.9 5.6 5.7 6.9 2 .9 4.3 1.2 6.6.6 5.5-1.4 8.8-6.8 7.4-12.3-1.2-5.5-6.7-8.9-12.2-7.5zM191.9 197.6c.4.2.8.5 1.2.6 4.6 2.1 10.1.5 12.8-3.9 3-4.8 1.5-11-3.2-14-4.8-2.9-11.1-1.5-14 3.3-3 4.7-1.6 11 3.2 14zM205.9 60.5c5.1 2.3 11.1 0 13.4-5.1 2.3-5.1 0-11.2-5.1-13.5-5.1-2.3-11.2 0-13.5 5.1-2.2 5.1.1 11.1 5.2 13.5zM193.3 124.6c.1.1.2.1.3.2 4.9 2.2 10.9.2 13.3-4.7 2.5-5 .4-11.1-4.6-13.7-5.1-2.5-11.1-.4-13.6 4.6s-.4 11.1 4.6 13.6zM202.4 106.3zM132 524.9c0-.1.1-.2.1-.2 0-.1.1-.2.1-.3 2.3-5.1 0-11.1-5.1-13.4-5.1-2.3-11.2 0-13.5 5.1 0 .1-.1.2-.2.3v.1c-2.3 5.1 0 11.2 5.1 13.5 5.1 2.3 11.1 0 13.5-5.1zM76.7 308.7c.2.1.5.2.8.3 5.3 1.9 11.1-.9 13-6.2 1.9-5.3-.9-11.1-6.2-13-5.3-1.9-11.1.9-13 6.2-1.8 5 .6 10.5 5.4 12.7zM90.1 25.3c.8.4 1.6.6 2.5.8 5.5.9 10.8-2.9 11.7-8.4.9-5.5-2.9-10.8-8.4-11.7-5.6-.9-10.8 2.9-11.7 8.4-.7 4.7 1.8 9.1 5.9 10.9zM56.6 365.9c-2.3 5.1-.1 11.1 5 13.4h.1c5.1 2.3 11.1 0 13.5-5.1 2.3-5.1 0-11.2-5.1-13.5-5.2-2.2-11.2.1-13.5 5.2zM77.3 87.4c.8.4 1.7.6 2.6.8 5.6.9 10.7-2.9 11.6-8.5.9-5.6-2.9-10.8-8.4-11.6-5.6-.9-10.8 2.9-11.6 8.4-.8 4.7 1.7 9.1 5.8 10.9zM10.9 288.7c-.1 4.1 2.4 7.7 6 9.3 1.3.6 2.6.9 4.1.9 5.6 0 10.2-4.5 10.2-10.1.1-5.6-4.5-10.2-10.1-10.3-5.6.1-10.2 4.6-10.2 10.2zM25.9 148c5.6.1 10.2-4.3 10.4-10 .1-5.6-4.4-10.3-10-10.4-5.6-.1-10.3 4.3-10.4 10-.1 4.2 2.4 7.9 5.9 9.5 1.3.6 2.7.9 4.1.9zM206.7 289c-4.2 3.8-4.4 10.2-.7 14.4 1 1 2.1 1.8 3.3 2.4 3.6 1.6 8 1.1 11.1-1.7 4.2-3.8 4.5-10.2.7-14.4-3.8-4.2-10.3-4.5-14.4-.7zM32.4 444.3c5.1 2.3 11.2 0 13.5-5.1 2.3-5.1 0-11.2-5.1-13.5-5.1-2.3-11.1 0-13.5 5.1-2.3 5.2 0 11.2 5.1 13.5zM88 134.5c-5.5-1.1-10.9 2.4-12 7.9-1 4.7 1.5 9.4 5.8 11.3.7.3 1.4.6 2.2.7 5.5 1.1 10.9-2.4 12-7.9 1-5.5-2.5-10.9-8-12zM96.2 642.2c1.1 2.1 2.8 3.6 4.8 4.5 2.8 1.3 6.1 1.3 8.9-.3 5-2.6 6.9-8.7 4.3-13.7-2.6-5-8.8-6.9-13.7-4.3-5 2.6-6.9 8.8-4.3 13.8zM142.4 461.2c-.6-5.6-5.6-9.7-11.2-9.1-5.6.6-9.6 5.6-9.1 11.2.4 3.8 2.8 6.8 5.9 8.2 1.6.7 3.4 1 5.2.9 5.7-.6 9.8-5.6 9.2-11.2zM109.2 237.5c.2.1.3.2.5.2 5.2 2 11.1-.6 13.2-5.8 2-5.3-.6-11.2-5.8-13.2-5.3-2-11.1.6-13.2 5.8-2 5.1.4 10.8 5.3 13zM107.2 416.5c3.2 1.5 7.1 1.2 10.2-1 4.6-3.3 5.6-9.7 2.3-14.2-3.3-4.6-9.6-5.6-14.2-2.3-4.5 3.3-5.6 9.7-2.3 14.2 1 1.5 2.4 2.6 4 3.3zM336.5 385.6c2.2 1 4.7 1.2 7.2.5 5.4-1.6 8.4-7.3 6.8-12.7-1.7-5.4-7.3-8.4-12.7-6.8-5.4 1.6-8.4 7.3-6.8 12.7.8 3 2.9 5.2 5.5 6.3zM391.6 212.4c3.2 1.5 7.1 1.2 10.2-1 4.6-3.3 5.6-9.6 2.3-14.2s-9.6-5.6-14.2-2.3-5.6 9.6-2.4 14.2c1.1 1.5 2.5 2.6 4.1 3.3zM353.1 165.6c3.6 1.7 8.1 1.1 11.2-1.8 4.1-3.8 4.3-10.3.5-14.4-3.9-4.1-10.3-4.3-14.4-.5s-4.3 10.3-.5 14.4c.9 1 2 1.7 3.2 2.3zM316.1 607.6c-.1.2-.1.3-.2.4-.1.1-.1.2-.2.3-2.3 5.1 0 11.2 5.1 13.5 5.1 2.3 11.2 0 13.5-5.1.1-.1.1-.2.2-.4l.2-.4c2.3-5.1 0-11.1-5.1-13.4-5.2-2.3-11.2 0-13.5 5.1zM334.1 241.1c3.3 1.5 7.3 1.2 10.3-1.2 4.5-3.4 5.4-9.8 2-14.3s-9.8-5.4-14.3-2c-4.5 3.4-5.4 9.8-2 14.3 1.1 1.5 2.5 2.5 4 3.2zM348.7 444.6c1.6.7 3.5 1.1 5.4.8 5.5-.7 9.6-5.7 8.9-11.3s-5.7-9.6-11.3-8.9c-5.6.6-9.6 5.7-8.9 11.3.4 3.7 2.8 6.7 5.9 8.1zM341 564.2c.5.2 1.1.4 1.7.6 5.5 1.4 11-1.9 12.3-7.4 1.4-5.5-1.9-11-7.4-12.3-5.4-1.4-11 1.9-12.3 7.4-1.2 4.8 1.2 9.7 5.7 11.7zM460.7 370.2c.8 3.2 2.9 5.7 5.7 7 2 .9 4.3 1.2 6.5.6 5.5-1.3 8.9-6.7 7.6-12.2-1.3-5.5-6.8-8.8-12.2-7.6-5.5 1.2-8.9 6.7-7.6 12.2zM479.6 417.5c-5.6.6-9.7 5.6-9.1 11.1.4 3.8 2.8 6.8 5.9 8.2 1.6.7 3.4 1 5.2.9 5.6-.6 9.7-5.6 9.1-11.1-.5-5.6-5.5-9.6-11.1-9.1zM423.7 263.9c2.8 1.3 6.1 1.2 9-.3 5-2.6 6.8-8.8 4.2-13.7-2.7-5-8.8-6.8-13.8-4.2-5 2.7-6.8 8.8-4.2 13.8 1.1 2 2.8 3.5 4.8 4.4zM405.9 336c-1.9-5.3-7.7-8-13-6.2-5.3 1.9-8 7.7-6.2 13 1 2.7 2.9 4.8 5.4 5.9 2.3 1.1 5 1.2 7.6.3 5.3-1.9 8.1-7.7 6.2-13zM402.4 400.4c.7 3.4 2.9 6 5.8 7.3 1.9.8 4 1.1 6.1.7 5.5-1.1 9.2-6.4 8.1-11.9-1.1-5.5-6.4-9.1-11.9-8.1-5.5 1.2-9.1 6.5-8.1 12zM254.4 591.7c5.1 2.3 11.2 0 13.5-5.1 0-.1.1-.2.1-.2 0-.1.1-.2.1-.3 2.3-5.1 0-11.1-5.1-13.4-5.1-2.3-11.2 0-13.5 5.1-.1.1-.1.2-.2.4 0 0 0 .1-.1.1-2.2 5 .1 11 5.2 13.4zM273.2 533c.7.3 1.5.6 2.3.7 5.5 1.1 10.9-2.5 11.9-8.1 1.1-5.5-2.5-10.9-8-11.9-5.5-1.1-10.9 2.5-11.9 8-1 4.8 1.5 9.4 5.7 11.3zM292.1 462.4c-.2-5.6-5-10-10.6-9.7-5.6.2-10 5-9.7 10.6.2 4 2.6 7.3 6 8.8 1.4.6 3 1 4.6.9 5.6-.2 10-5 9.7-10.6zM258.3 88.3c.4.2.7.4 1.1.6 4.6 2.1 10.1.5 12.8-3.9 3-4.8 1.5-11.1-3.3-14-4.8-2.9-11.1-1.5-14 3.3-2.9 4.8-1.4 11.1 3.4 14zM244.6 155.2c.5.4 1.1.7 1.7.9 4.4 2 9.7.7 12.5-3.4 3.2-4.6 2.1-11-2.5-14.2-4.6-3.3-10.9-2.2-14.1 2.4-3.3 4.7-2.2 11 2.4 14.3zM238.5 232.8c.8.7 1.7 1.3 2.6 1.8 3.9 1.8 8.7.9 11.7-2.4 3.8-4.2 3.5-10.6-.7-14.4-4.2-3.8-10.6-3.5-14.4.7-3.7 4.1-3.4 10.5.8 14.3zM306.5 122.7c.7.6 1.4 1 2.2 1.4 4.1 1.9 9.1.8 12.1-2.8 3.5-4.4 2.9-10.8-1.4-14.3-4.4-3.6-10.8-2.9-14.3 1.4-3.6 4.4-2.9 10.8 1.4 14.3zM313.5 311.5c-5 2.6-7 8.7-4.4 13.7 1.1 2.1 2.9 3.7 4.9 4.6 2.7 1.2 6 1.3 8.8-.2 5-2.6 7-8.7 4.4-13.7-2.6-5-8.7-7-13.7-4.4zM293.4 195.2c3.8 1.7 8.5 1 11.5-2.2 3.9-4 3.8-10.5-.2-14.4-4-3.9-10.5-3.8-14.4.2-3.9 4-3.8 10.5.3 14.4.8.9 1.8 1.5 2.8 2zM254.1 355.1c4.9-2.7 6.7-8.9 4-13.8s-8.9-6.7-13.8-4-6.7 8.9-4 13.8c1.1 2 2.8 3.4 4.7 4.3 2.7 1.3 6.1 1.3 9.1-.3zM281.8 278.9c3.3 1.5 7.3 1.2 10.4-1.2 4.5-3.4 5.3-9.8 1.9-14.3s-9.8-5.3-14.3-1.9-5.3 9.8-1.9 14.3c1.1 1.4 2.4 2.4 3.9 3.1zM219.1 628.5c-3.4 4.4-2.6 10.8 1.8 14.3.6.5 1.3.9 2 1.2 4.2 1.9 9.3.8 12.3-3 3.4-4.5 2.6-10.8-1.8-14.3s-10.8-2.7-14.3 1.8zM268.1 411.9c2.1 1 4.6 1.2 7 .6 5.4-1.5 8.5-7.2 7-12.6-1.5-5.4-7.1-8.6-12.6-7-5.4 1.5-8.6 7.1-7 12.6.9 2.9 3 5.2 5.6 6.4zM280.5 777.3c-3.5-4.4-9.9-5-14.3-1.5-4.3 3.5-5 10-1.4 14.3 1 1.3 2.3 2.2 3.7 2.8 3.4 1.5 7.5 1.1 10.6-1.4 4.3-3.4 4.9-9.8 1.4-14.2zM283.2 842.5c-4.6 3.3-5.6 9.6-2.4 14.2 1.1 1.5 2.5 2.6 4.1 3.3 3.2 1.5 7.1 1.2 10.1-1 4.6-3.3 5.6-9.6 2.4-14.2-3.3-4.5-9.6-5.6-14.2-2.3zM323.8 733.9c-4.2-3.8-10.6-3.4-14.4.8-3.8 4.2-3.4 10.6.8 14.4.8.7 1.7 1.3 2.6 1.7 3.9 1.8 8.7.9 11.8-2.4 3.7-4.3 3.3-10.8-.8-14.5zM301.2 656.5c-4.6-3.2-11-2-14.1 2.6-3.2 4.6-2 11 2.6 14.1.5.3 1 .7 1.6.9 4.4 2 9.7.6 12.6-3.5 3.1-4.5 1.9-10.9-2.7-14.1zM329.1 804.9c-4.1 3.8-4.3 10.3-.5 14.4.9 1 2 1.8 3.2 2.3 3.6 1.7 8.1 1.1 11.1-1.8 4.1-3.8 4.3-10.3.5-14.4-3.7-4.1-10.2-4.3-14.3-.5zM359.8 684.4c-4.7-3.1-11-1.8-14.1 3-3.1 4.7-1.8 11 3 14.1.5.3.9.5 1.4.7 4.5 2 9.9.6 12.7-3.7 3.1-4.8 1.8-11.1-3-14.1zM227.4 827.5c4.8-2.8 6.5-9.1 3.6-13.9-2.8-4.8-9.1-6.5-13.9-3.6-4.8 2.8-6.5 9.1-3.6 13.9 1.1 1.9 2.7 3.3 4.5 4.1 2.9 1.4 6.5 1.3 9.4-.5zM264.1 704c-4-4-10.4-4-14.4 0s-4 10.4 0 14.4c.9.9 1.9 1.6 3 2.1 3.7 1.7 8.3 1 11.4-2.1 4-4 4-10.5 0-14.4zM216.5 758.1c4.6-3.2 5.7-9.5 2.5-14.2-3.2-4.6-9.5-5.8-14.1-2.6-4.6 3.2-5.8 9.6-2.6 14.2 1.1 1.6 2.6 2.7 4.2 3.5 3.1 1.4 6.9 1.2 10-.9zM213.5 491.6c.5-5.6-3.6-10.6-9.2-11.1s-10.5 3.6-11.1 9.2c-.4 4.4 2.1 8.4 5.9 10.2 1 .5 2.1.8 3.3.9 5.7.5 10.6-3.7 11.1-9.2zM232.8 873.8c-5 2.6-6.8 8.8-4.2 13.8 1.1 2.1 2.8 3.6 4.8 4.5 2.8 1.3 6.1 1.3 9-.3 5-2.7 6.8-8.8 4.2-13.8-2.7-5-8.9-6.9-13.8-4.2zM355.1 485.3c-5.6-.4-10.4 3.9-10.8 9.5-.3 4.4 2.2 8.2 6 9.9 1.1.5 2.3.8 3.5.9 5.6.4 10.4-3.9 10.8-9.5.4-5.6-3.9-10.4-9.5-10.8zM462.4 306.3c-2-5.3-7.8-7.9-13.1-5.9s-7.9 7.8-5.9 13.1c1 2.6 3 4.6 5.3 5.7s5.2 1.3 7.8.3c5.3-2.1 8-8 5.9-13.2zM419 449.2c-5.6.2-10 4.9-9.8 10.5.1 4 2.6 7.3 6 8.9 1.4.6 2.9 1 4.5.9 5.6-.2 10-4.9 9.8-10.6-.2-5.5-4.9-9.9-10.5-9.7zM466.1 597.9c-5.4-1.6-11.1 1.4-12.7 6.8-1.5 4.9.9 10.2 5.5 12.2.4.2.8.3 1.3.5 5.4 1.6 11.1-1.4 12.7-6.8 1.6-5.4-1.4-11.1-6.8-12.7zM446 655.1c-5.1-2.3-11.1 0-13.4 5.1-.1.2-.2.4-.2.5-.1.2-.1.3-.2.4-2.3 5.1-.1 11.1 5.1 13.5s11.2 0 13.5-5.1c.1-.2.2-.3.2-.5.1-.1.2-.3.3-.5 2.2-5.1-.1-11.1-5.3-13.4zM192 540.2c-5.1-2.3-11.2 0-13.5 5.1-.1.1-.1.2-.2.4 0 .1-.1.2-.1.2-2.3 5.1 0 11.2 5.1 13.5 5.1 2.3 11.2 0 13.5-5.1.1-.1.1-.2.2-.3.1-.1.1-.2.2-.4 2.2-5.1 0-11.1-5.2-13.4zM37.4 658.1c.6 3.5 2.8 6.3 5.9 7.7 1.8.8 3.7 1.1 5.8.8 5.6-.9 9.4-6.1 8.5-11.6-.9-5.6-6.1-9.4-11.6-8.5-5.7.8-9.5 6-8.6 11.6zM478.5 538.5c-5.5-.9-10.8 2.8-11.7 8.4-.8 4.6 1.7 9.1 5.8 10.9.8.4 1.6.6 2.6.8 5.5.9 10.8-2.9 11.7-8.4.9-5.6-2.8-10.8-8.4-11.7zM384 760.2c-4.3-3.6-10.8-2.9-14.3 1.4-3.6 4.3-2.9 10.7 1.4 14.3.7.6 1.4 1 2.2 1.4 4.1 1.9 9.1.8 12.1-2.8 3.6-4.3 3-10.7-1.4-14.3zM376.2 292.4c4.9-2.7 6.8-8.8 4.1-13.8-2.7-4.9-8.8-6.8-13.8-4.1-5 2.6-6.8 8.8-4.1 13.8 1.1 2 2.8 3.5 4.7 4.4 2.9 1.2 6.2 1.2 9.1-.3zM388.3 629c-5.1-2.3-11.1 0-13.4 5.1-.1.2-.2.3-.2.5-.1.1-.1.2-.2.3-2.3 5.1 0 11.2 5.1 13.5 5.1 2.3 11.2 0 13.5-5.1.1-.2.1-.3.2-.4.1-.1.1-.3.2-.4 2.2-5.1-.1-11.2-5.2-13.5zM414.8 583.5c1.5-5.4-1.7-11-7.1-12.5-5.4-1.5-11 1.6-12.5 7-1.4 4.9 1.1 10 5.6 12 .5.2 1 .4 1.5.5 5.4 1.5 11-1.6 12.5-7zM418.2 710.1c-4.8-2.9-11-1.5-14 3.3-2.9 4.8-1.5 11 3.3 14l1.2.6c4.6 2.1 10.1.5 12.8-3.9 3-4.7 1.5-11-3.3-14zM418.1 510.5c-5.6-.7-10.6 3.3-11.3 8.9-.6 4.5 2 8.7 5.9 10.5 1 .4 2 .7 3 .9 5.6.6 10.6-3.3 11.3-8.9.6-5.7-3.4-10.7-8.9-11.4zM483.1 478c-5.6-.2-10.3 4.2-10.5 9.9-.1 4.3 2.3 8 6 9.6 1.2.5 2.5.9 3.9.9 5.6.2 10.3-4.2 10.5-9.8.1-5.7-4.3-10.4-9.9-10.6zM4.3 927.1c-1.5 0-2.9.3-4.3.8v18.7c1.1.5 2.3.8 3.6.8 5.6.2 10.3-4.2 10.5-9.8.2-5.6-4.2-10.3-9.8-10.5zM58.3 872.4c-.4-5.6-5.3-9.9-10.9-9.4-5.6.4-9.8 5.3-9.4 10.9.3 3.9 2.7 7 6 8.5 1.5.7 3.2 1 4.9.9 5.6-.5 9.8-5.4 9.4-10.9zM14.5 726.5c-5.6-.1-10.3 4.4-10.3 10-.1 4.2 2.4 7.8 6 9.5 1.2.6 2.6.9 4 .9 5.6.1 10.3-4.4 10.4-10 .1-5.7-4.4-10.3-10.1-10.4zM11 516.6c2.3-5.1 0-11.2-5.1-13.5-1.9-.9-4-1.1-5.9-.8v20c4.5.9 9-1.4 11-5.7zM40.5 585.9c-.5-5.6-5.6-9.7-11.1-9.1-5.6.6-9.7 5.5-9.1 11.1.4 3.7 2.7 6.8 5.9 8.2 1.6.7 3.4 1 5.2.9 5.5-.6 9.6-5.6 9.1-11.1zM178.1 670.4c-4.4 3.5-5.1 9.9-1.5 14.3 1 1.3 2.3 2.2 3.7 2.9 3.4 1.5 7.5 1.1 10.6-1.4 4.4-3.5 5.1-9.9 1.5-14.3-3.5-4.4-10-5.1-14.3-1.5zM0 219.6c2.3-2.1 3.7-5.2 3.3-8.6-.3-2.6-1.5-4.9-3.3-6.6v15.2zM50 222.4c.9.4 1.8.7 2.8.8 5.6.7 10.7-3.1 11.5-8.7.8-5.6-3.2-10.7-8.7-11.4-5.6-.7-10.7 3.2-11.5 8.7-.6 4.5 1.9 8.7 5.9 10.6zM67.1 495.5c0-.1 0-.1 0 0 .1-.1.1-.2.1-.2 2.3-5.1 0-11.1-5.1-13.5-5.1-2.3-11.2 0-13.5 5.1v.2c-2.3 5.1-.1 11.1 5.1 13.5 5 2.3 11.1 0 13.4-5.1zM16.2 82.6c1.3.6 2.7.9 4.2.9 5.6 0 10.2-4.5 10.2-10.1s-4.5-10.2-10.1-10.2-10.2 4.5-10.2 10.2c-.1 4 2.4 7.6 5.9 9.2zM0 354.1v13c1 1.2 2.2 2.1 3.6 2.8 1.6.7 3.4 1 5.2.8 5.6-.6 9.7-5.6 9.1-11.2-.5-5.6-5.6-9.7-11.1-9.1-2.8.4-5.2 1.7-6.8 3.7zM29.7 19.5c1.2.5 2.5.9 3.9.9 5.6.2 10.3-4.3 10.5-9.8C44.3 4.9 39.9.2 34.2 0c-5.6-.2-10.3 4.2-10.5 9.9-.1 4.2 2.4 7.9 6 9.6zM42.7 819.1c5.6-.4 9.8-5.3 9.4-10.9-.4-5.6-5.2-9.8-10.8-9.4-5.6.4-9.8 5.2-9.5 10.8.3 3.9 2.7 7.1 6 8.6 1.5.6 3.2 1 4.9.9zM162.5 788.7c5.1-2.3 7.4-8.4 5.1-13.5-2.3-5.1-8.4-7.4-13.5-5.1-5.1 2.3-7.4 8.4-5 13.5 1.1 2.3 2.9 4.1 5 5 2.6 1.3 5.6 1.4 8.4.1zM161.1 607.6c3.9-4.1 3.7-10.5-.4-14.4-4.1-3.9-10.5-3.7-14.4.4-3.9 4.1-3.7 10.5.4 14.4.8.8 1.8 1.4 2.8 1.9 3.8 1.8 8.5 1 11.6-2.3zM176.7 841.9c-2.1-5.2-8-7.8-13.2-5.7-5.3 2.1-7.8 8-5.7 13.2 1 2.5 2.9 4.5 5.2 5.5 2.4 1.1 5.3 1.2 8 .2 5.2-2 7.7-7.9 5.7-13.2zM128.4 701.6c-5.1 2.4-7.2 8.5-4.8 13.6 1.1 2.2 2.9 3.9 5 4.9 2.6 1.2 5.8 1.3 8.6-.1 5.1-2.4 7.2-8.5 4.8-13.6-2.4-5-8.5-7.2-13.6-4.8zM178.8 898.2c-5.3 2-7.9 7.8-6 13.1 1 2.6 3 4.6 5.3 5.7 2.4 1.1 5.2 1.3 7.8.3 5.3-2 7.9-7.9 6-13.1-2-5.3-7.9-8-13.1-6zM72.9 720.7c-5.5 1.2-9 6.6-7.8 12.1.7 3.3 3 5.8 5.8 7.1 1.9.9 4.2 1.2 6.4.7 5.5-1.2 9-6.6 7.8-12.1-1.3-5.5-6.7-9-12.2-7.8zM93.7 560.2c-3.3-4.6-9.6-5.6-14.2-2.3s-5.6 9.6-2.4 14.2c1.1 1.5 2.5 2.6 4.1 3.3 3.2 1.5 7.1 1.2 10.1-1 4.6-3.2 5.6-9.6 2.4-14.2zM63.5 925.1c-5.6.6-9.7 5.5-9.1 11.1.4 3.7 2.7 6.8 5.9 8.3 1.6.7 3.4 1 5.2.8 5.6-.6 9.7-5.5 9.1-11.1-.5-5.6-5.5-9.6-11.1-9.1zM122 915.4c-5.4 1.3-8.9 6.7-7.6 12.2.7 3.2 2.9 5.7 5.7 7 2 .9 4.2 1.2 6.5.6 5.5-1.3 8.9-6.7 7.6-12.2-1.3-5.5-6.7-8.8-12.2-7.6zM104 809.2c5.5-1.4 8.8-6.9 7.4-12.4-1.4-5.4-6.9-8.7-12.4-7.4-5.5 1.4-8.8 6.9-7.4 12.4.8 3.1 2.9 5.5 5.6 6.8 2.1 1 4.4 1.2 6.8.6zM118.6 861.7c-1.2-5.5-6.7-8.9-12.2-7.6-5.5 1.2-8.9 6.7-7.6 12.2.8 3.3 2.9 5.7 5.7 7 2 .9 4.2 1.2 6.5.7 5.5-1.4 8.9-6.9 7.6-12.3z"/></g></svg>