<svg xmlns="http://www.w3.org/2000/svg" viewBox="0 0 61.7 86.7"><path fill="#F36C21" d="M37.5 49l-5.1-4H29l-3.4 2-1.4 3.2v2.4l1.4 3.3.9 1.7v3.5l.1 3.2 1.5 1.4 2.7 1.7 2-.7s.9-1.9 1.1-2.3c.1-.4.5-5.4.5-5.4l.1-2.3 1.2-1.8 1.7-2.4V49z"/><g fill="#464646"><path d="M30.6 42.7c-4.4.1-8 3.7-8.2 8.1-.1 2.6 1 5.2 3 6.9v6c0 3 2.4 5.5 5.5 5.5s5.5-2.4 5.5-5.5v-6c1.9-1.6 3-4 3-6.5 0-2.3-.9-4.5-2.6-6.1-1.7-1.6-3.9-2.4-6.2-2.4zM34 55.1c-.7.6-1.1 1.4-1.1 2.4v6.1c0 1.1-.9 2.1-2.1 2.1s-2.1-.9-2.1-2.1v-6.1c0-.9-.4-1.8-1.1-2.4-1.3-1-2-2.6-1.9-4.2.1-2.6 2.3-4.8 4.9-4.8h.1c1.3 0 2.6.5 3.5 1.4 1 1 1.5 2.3 1.5 3.6.2 1.6-.5 3.1-1.7 4z"/><path d="M52.9 34.4V22c0-12.1-9.9-22-22-22s-22 9.9-22 22v12.3c-1.3 1.4-2.6 2.9-3.6 4.5C1.8 43.9 0 49.8 0 55.9c0 8.9 3.9 17.4 10.7 23.3.2.2.4.3.6.5 5.5 4.5 12.5 7 19.6 7 17 0 30.8-13.8 30.8-30.8 0-8.4-3.4-16-8.8-21.5zM12.2 22c0-10.3 8.4-18.6 18.6-18.6 10.3 0 18.6 8.4 18.6 18.6v9.3c-1.5-1.1-3.1-2.1-4.7-3V22c0-7.7-6.2-13.9-13.9-13.9C23.2 8.1 17 14.4 17 22v6.4c-1.7.8-3.3 1.8-4.7 3V22zm29.2 0v4.9c-3.3-1.2-6.8-1.8-10.5-1.8-3.6 0-7.2.6-10.5 1.8V22c0-5.8 4.7-10.5 10.5-10.5S41.4 16.2 41.4 22zM30.9 83.4c-13 0-24.3-9.2-26.9-21.9 0-.1 0-.1-.1-.2-.3-1.7-.5-3.5-.5-5.3 0-1.8.2-3.6.5-5.3 0-.1 0-.1.1-.2 2.6-12.7 13.9-21.9 26.9-21.9C46 28.6 58.3 40.9 58.3 56S46 83.4 30.9 83.4z"/><path d="M53.7 54.7c-.3-.3-.8-.5-1.2-.5-.4 0-.9.2-1.2.5-.3.3-.5.8-.5 1.2s.2.9.5 1.2c.3.3.8.5 1.2.5.4 0 .9-.2 1.2-.5.3-.3.5-.8.5-1.2s-.1-.9-.5-1.2zM52.3 52.6c.9-.2 1.5-1.1 1.3-2-1.2-5-4.1-9.6-8.1-12.9-4.1-3.3-9.3-5.1-14.6-5.1-.9 0-1.7.8-1.7 1.7 0 .9.8 1.7 1.7 1.7 9.3 0 17.3 6.3 19.5 15.4.2.8.9 1.3 1.6 1.3.1-.1.2-.1.3-.1z"/></g></svg>