<svg xmlns="http://www.w3.org/2000/svg" viewBox="0 0 165.4 59.6"><path fill="#93D500" d="M153.1 30.9c-1.8.1-3.1.4-3.9.6-.2 4.3-2.5 6.9-6.3 6.7-1.6-.1-3.1-.8-4.1-1.9-1.3-1.4-2.1-3.8-2.1-5.8s.5-4.2 1.3-5.4c-.5-.7-1.3-1.3-2.7-2.1-1.1-.6-2.2-1.4-3-1.5-2 2.4-3.1 6-3.1 9.5 0 7.9 5.8 13.6 13.8 13.6 8.2 0 13.8-5.4 14-13.5-1.1-.3-2.4-.3-3.9-.2"/><path fill="#FF6B00" d="M6.6 35.7c.2 2.1 2.3 3.8 4.6 3.8s3.8-.5 6-1.8l1.4 3.6c-2.2 2.2-5.1 3.2-8.7 3.2-5.8 0-9.8-4-9.8-9.8C0 29.2 4.4 25 9.9 25c5.1 0 8.5 3.3 8.6 8.1l-1.9 2.6h-10zm6.6-3.3c-.1-2-1.4-3.3-3.3-3.3s-3.2 1.3-3.5 3.3h6.8zM34 29.7h-4.5v14.7h-6.6V29.7h-3.4V25h3.4v-.3c0-4.6 3.3-7.9 8.4-8.2 1.5-.1 2.6.1 4.5.6l-.9 4.5c-1-.2-1.5-.2-2.2-.2-2.2.2-3.4 1.4-3.4 3.5v.1H34v4.7zM41.1 35.7c.2 2.1 2.3 3.8 4.6 3.8s3.8-.5 6-1.8l1.4 3.6c-2.2 2.2-5.1 3.2-8.7 3.2-5.8 0-9.8-4-9.8-9.8 0-5.4 4.4-9.6 9.9-9.6 5.1 0 8.5 3.3 8.6 8.1l-1.9 2.6H41.1zm6.6-2.9c-.1-2.1-1.4-3.3-3.3-3.3s-3.2 1.3-3.5 3.3h6.8zM68.9 31.6c-1.4-.9-2.3-1.1-3.6-1.1-2.1 0-3.7 1.7-3.7 3.9 0 2.5 1.6 4.4 3.9 4.4 1.4 0 2.3-.2 3.7-1l2 4.5c-2 1.5-4.3 2.2-7 2.2-5.7 0-9.6-4-9.6-9.8 0-5.2 4.3-9.4 9.7-9.6 2.5-.1 4.8.5 6.8 1.8l-2.2 4.7zM88.7 29.7h-5.4v6c0 2.6.6 3.4 2.7 3.4.9 0 1.6-.2 3.2-.6l1 4.2c-2.1 1.2-4.2 1.7-7 1.7-2.7 0-4.8-1-5.6-2.8-.6-1.2-.7-2.1-.7-4.4v-7.4h-3.5v-4.1c4.1-.4 5.8-1.5 6.8-5.8h3.3l-.2 5.1h5.4v4.7zM99.6 43.9H93V25h6.6v18.9z"/><path fill="#93D500" d="M122.3 24.8c-1.8-1.6-3.6-1.8-5.7-1.8-4.1 0-6.8 3.1-6.8 7.6 0 4.2 3.1 7.5 7.1 7.7 1.2 0 2-.1 3.1-.6v-3.8h-4.3l.5-5h10.7v12.3c-3.2 2.2-6.6 3.2-10.9 3.2-4.1 0-8.1-1.7-10.5-4.5-2.2-2.5-3.2-5.5-3.2-9.4 0-7.8 6.2-14 14.1-14 4.3 0 7.4.8 10.2 3.4l-4.3 4.9zM160.1 23c-.1-.2-.5-.8-.7-.8-.6 0-3 .1-3.4.3-.6.3.2 1.3.2 1.3l.7 1.5c.1.3-.1.7-.4.7-1.9.2-5.8.6-9 1.6-4 1.2-7 3.4-7.1 3.5-.1.1-.4.6.4.7.8.1 1.8-.8 3.8-1.6.8-.3 4.7-1.5 8.4-1.8 3.9-.3 6.4-.3 7.5-.2.3 0 .5-.2.5-.6 0-.6-.1-1.5-.2-2.4-.3-.8-.6-1.7-.7-2.2M132.6 16.4s-.2.5-.7.3c-.5-.2-.2-5 .7-9.1 1-4 1.7-8.2 16.6-7.6 11.9.5 15.3 4.4 16.1 6 .2.3 0 .7-.3.7-1.7.3-6.9 1.5-12.8 7-7.3 6.8-10 10.5-10 10.5s-.5.4-.9.1c-.4-.3-.3-.9.3-1.7.5-.8 6.5-9.5 10.9-12.8 2.8-2.1 5-3.3 6.1-3.9.4-.2.3-.7 0-.9-1.9-.7-6.1-2-11.4-2.1-7.2-.1-9.8.1-11.3 3-1.5 3-3.3 10.5-3.3 10.5"/><path fill="#93D500" d="M138.5 18.9l-.6.8-1.4-1 .6-.8c-1.1-1.1-1-2.6 0-4.1l.2-.4 1.6 1.2-.3.5c-.6.8-.4 1.3.1 1.7.6.4 1.1.3 1.6-.5 1.6-2.3-1.7-4.9.5-8.1 1-1.5 2.4-2.1 3.8-1.4l.6-.8 1.4 1-.6.7c1.1 1.1 1 2.6 0 4.1l-.5.8-1.6-1.2.6-.9c.5-.8.4-1.3-.2-1.7-.6-.4-1.1-.3-1.7.5-1.6 2.3 1.7 4.9-.5 8.1-.9 1.5-2.2 2.1-3.6 1.5M154.5 14.5c.3-.1.6-.1.8 0 .6.4 1.7 1.3 2.5 2.2 1.2 1.2 2.4 2.9 1.9 3.4-.5.4-2.3.4-3.4.7-1.5.4-7.3 2.4-8.9 3.5-1.6 1.1-5.3 3.8-5.3 3.8s-.5.4-.7.3c-.3-.1-.5-.6-.1-1.1.4-.5 5.2-4 8.3-5.8 3-1.8 5.3-1.8 5.3-2.2 0-.4-1-1.3-1.3-1.6-.8-.7-1.8-1.1-1.8-1.1s.6-.8 1.2-1.2c.2-.3 1.1-.8 1.5-.9"/><path fill="#FF6B00" d="M33.1 53.7H31V53h5v.7h-2.1v5.8h-.8zM37.5 56.8V53h.7v3.7c0 1.4.7 2.2 2 2.2 1.2 0 1.9-.7 1.9-2.1V53h.7v3.7c0 1.9-1.1 2.8-2.7 2.8-1.5.1-2.6-.9-2.6-2.7M47.8 53h2.4c1.5 0 2.4.8 2.4 2 0 1.4-1.2 2.1-2.5 2.1h-1.6v2.3h-.7V53zm2.3 3.5c1.1 0 1.8-.6 1.8-1.4 0-.9-.7-1.4-1.7-1.4h-1.6v2.8h1.5zM54.2 53H57c.8 0 1.4.2 1.8.6.3.3.5.8.5 1.3 0 1.1-.7 1.7-1.7 1.9l2 2.6h-.9l-2-2.4h-1.8v2.5h-.7V53zm2.7 3.3c1 0 1.7-.5 1.7-1.3s-.6-1.3-1.6-1.3h-2v2.6h1.9zM61 53h4.6v.7h-3.9v2.2h3.5v.7h-3.5v2.2h4v.7H61V53zm3-1.7l.7.3-1.1.9H63l1-1.2zM67 58.5l.4-.5c.7.6 1.3.9 2.2.9.9 0 1.4-.5 1.4-1.1 0-.6-.3-.9-1.7-1.2-1.5-.3-2.2-.8-2.2-1.9 0-1 .9-1.8 2.1-1.8.9 0 1.6.3 2.3.8l-.4.6c-.6-.5-1.2-.7-1.9-.7-.8 0-1.4.5-1.4 1 0 .6.3.9 1.7 1.2 1.4.3 2.1.8 2.1 1.8 0 1.1-.9 1.8-2.2 1.8-.8.1-1.6-.2-2.4-.9M75.1 53.7h-2.2V53H78v.7h-2.2v5.8h-.7zM81.1 53h.7l2.9 6.5h-.8l-.8-1.7h-3.5l-.8 1.7h-.7l3-6.5zm1.8 4.1l-1.5-3.3-1.4 3.3h2.9zM86.2 53h.7l2.4 3.5 2.3-3.5h.8v6.5h-.8v-5.2l-2.3 3.4h-.1l-2.3-3.4v5.2h-.7zM94.1 56.3c0-1.8 1.3-3.3 3.3-3.3s3.3 1.5 3.3 3.3c0 1.8-1.3 3.3-3.3 3.3-2 0-3.3-1.6-3.3-3.3m5.8 0c0-1.5-1.1-2.7-2.5-2.7-1.5 0-2.5 1.2-2.5 2.6 0 1.5 1.1 2.7 2.5 2.7 1.5 0 2.5-1.2 2.5-2.6"/><path fill="#93D500" d="M105.1 53h5.1v1.5h-3.4v1h3.1v1.4h-3.1v1h3.5v1.6h-5.2zM111.8 53h5.1v1.6h-3.3v1.1h3v1.5h-3v2.3h-1.8zM118.3 53h5.2v1.5h-3.4v1h3.1v1.4h-3.1v1h3.4v1.6h-5.2zM124.8 56.3c0-1.9 1.4-3.4 3.4-3.4 1.3 0 2.2.6 2.7 1.3l-1.3 1c-.4-.5-.8-.8-1.4-.8-.9 0-1.5.8-1.5 1.7 0 1 .6 1.7 1.5 1.7.7 0 1.1-.3 1.5-.8l1.3 1c-.6.8-1.4 1.5-2.8 1.5-1.9.1-3.4-1.3-3.4-3.2M133.9 54.6h-2V53h5.7v1.6h-1.9v4.9h-1.8zM139 53h1.8v6.4H139zM142 53h2l1.5 4.1L147 53h1.9l-2.6 6.5h-1.7zM149.5 56.3c0-1.9 1.5-3.4 3.5-3.4s3.5 1.5 3.5 3.3c0 1.8-1.5 3.3-3.5 3.3s-3.5-1.4-3.5-3.2m5.1 0c0-.9-.7-1.8-1.7-1.8s-1.6.8-1.6 1.7c0 .9.7 1.7 1.6 1.7 1 .1 1.7-.7 1.7-1.6"/><path fill="#FF6B00" d="M99.8 20c0 2.1-1.4 3.5-3.5 3.5S92.8 22 92.8 20s1.5-3.5 3.5-3.5 3.5 1.5 3.5 3.5"/></svg>