<svg id="Layer_1" xmlns="http://www.w3.org/2000/svg" viewBox="0 0 89.9 68.2"><style>.st0{fill:#95c648;stroke:#000;stroke-miterlimit:10}.st1{fill:#ebebeb}.st2{fill:#f06c2f}.st3{fill:#464646}</style><path class="st2" d="M52.7 11v13.5l5.1 7.1-.9 1.5 6.4 8.3 6.1-9.1-1.2-1 5.5-7.3-.6-9.4-16.8-.8zM17 11v13.5l5.1 7.1-.9 1.5 6.3 8.3 6.2-9.1-1.3-1 5.5-7.3-.5-9.4-16.8-.8z"/><path class="st3" d="M0 43.1v23.4c0 1 .8 1.8 1.8 1.8h86.4c1 0 1.8-.8 1.8-1.8v-22c0-7.8-6.4-14.2-14.2-14.2h-4c2.2-2.2 3.5-5.2 3.5-8.5V8.6c0-4.7-3.9-8.6-8.6-8.6H53c-1 0-1.8.8-1.8 1.8v20c0 3.3 1.4 6.3 3.5 8.5H35.8c2.2-2.2 3.5-5.2 3.5-8.5V8.6c0-4.7-3.9-8.6-8.6-8.6H17.1c-1 0-1.8.8-1.8 1.8v20c0 3.3 1.4 6.3 3.5 8.5h-6.1C5.8 30.3 0 36 0 43.1zM35.9 8.6v4H23.7c-2.7 0-4.8-2.2-4.8-4.8V3.5h11.9c2.8 0 5.1 2.3 5.1 5.1zm-8.5 21.7c-4.7 0-8.5-3.8-8.5-8.5v-7.2c1.4 1 3 1.6 4.8 1.6h12.2v5.6c0 4.6-3.8 8.5-8.5 8.5zm3.6 3.5l-3.4 5-3.7-5H31zm40.8-21.2H59.6c-2.7 0-4.8-2.2-4.8-4.8V3.5h11.9c2.8 0 5.1 2.3 5.1 5.1v4zm-8.5 17.7c-4.7 0-8.5-3.8-8.5-8.5v-7.2c1.4 1 3 1.6 4.8 1.6h12.2v5.6c0 4.6-3.8 8.5-8.5 8.5zm3.3 3.5l-3.4 5-3.7-5h7.1zm11.9 19.6v11.3H39.4v-2c0-1-.8-1.8-1.8-1.8s-1.8.8-1.8 1.8v2H11.1v-6c0-1-.8-1.8-1.8-1.8s-1.8.8-1.8 1.8v6h-4V43.1c0-5.1 4.2-9.3 9.3-9.3h6.7l6.8 9.1c.3.4.9.7 1.4.7.6 0 1.1-.3 1.4-.8l6.1-9.1h4.7c-2.5 2.3-4 5.6-4 9.3v14.2c0 1 .8 1.8 1.8 1.8s1.8-.8 1.8-1.8V43.1c0-5.1 4.2-9.3 9.3-9.3h6.4l6.4 8.7v10.4c0 1 .8 1.8 1.8 1.8s1.8-.8 1.8-1.8V42.4l5.8-8.6h4.9c5.9 0 10.7 4.8 10.7 10.7v20.3H82V53.4c0-1-.8-1.8-1.8-1.8s-1.7.8-1.7 1.8z"/></svg>