<svg xmlns="http://www.w3.org/2000/svg" viewBox="0 0 61.7 87.6"><path fill="#94C83D" d="M17.1 24.3l3.7 9.1 9.4 6.3 5.9-2.6 7.5-8.1.9-5.7-5.9-2h-4.2l-4.3 3.1-5.4 1.2-3.4-1.3-4.2-1.1zM44.5 76.3L40 70.6l-8.6-4.7-10.5 5.8-3.8 3.4.4 3.9h27z"/><g fill="#464646"><path d="M30.8 56.8c-.9 0-1.7.8-1.7 1.7s.8 1.7 1.7 1.7 1.7-.8 1.7-1.7-.8-1.7-1.7-1.7zM29.1 41.2v10.5c0 .9.8 1.7 1.7 1.7s1.7-.8 1.7-1.7V41.2l3.6-1.9c5.9-3.2 9.8-9.2 10.1-15.9 0-.8-.4-1.5-1.2-1.7l-5.7-1.9c-1-.3-2-.5-3-.5-2.5 0-4.9 1-6.7 2.8-1.7 1.6-4 2.2-6.3 1.5l-5.7-1.9c-.5-.2-1.1-.1-1.6.3-.5.3-.7.9-.7 1.4.3 6.7 4.1 12.7 10.1 15.9l3.7 1.9zm-9.9-15.5l3.1 1c3.4 1.2 7.2.3 9.8-2.3 1.2-1.2 2.7-1.8 4.3-1.8.7 0 1.3.1 1.9.3l4.4 1.5c-.6 5-3.6 9.4-8.2 11.8l-3.7 2-3.7-2c-4.1-2.2-7-6-7.9-10.5z"/><path d="M8.5 65.2v12.1H6.8c-2.8 0-5.1 2.3-5.1 5.1v1.7c-.9 0-1.7.8-1.7 1.7 0 .9.8 1.7 1.7 1.7H60c.9 0 1.7-.8 1.7-1.7 0-.9-.8-1.7-1.7-1.7h-.1v-1.7c0-2.8-2.3-5.1-5.1-5.1H53V65.2c0-8.6-4.2-16.6-11.2-21.4C48.9 38.9 53 30.9 53 22.4V10.3h1.7c2.8 0 5.1-2.3 5.1-5.1V3.4h.2c.9 0 1.7-.8 1.7-1.7S60.9 0 60 0H1.7C.8 0 0 .8 0 1.7s.8 1.7 1.7 1.7v1.7c0 2.8 2.3 5.1 5.1 5.1h1.7v12.1c0 8.6 4.2 16.6 11.2 21.4-7.1 5-11.2 13.1-11.2 21.5zm46.2 15.5c.9 0 1.7.8 1.7 1.7v1.7H5.1v-1.7c0-.9.8-1.7 1.7-1.7h47.9zm-35.8-3.4c.5-3.8 2.9-5 7.5-7.5l4.4-2.3 4.4 2.3c4.6 2.4 7 3.7 7.5 7.5H18.9zM6.8 6.8c-.9 0-1.7-.8-1.7-1.7V3.4h51.3v1.7c0 .9-.8 1.7-1.7 1.7H6.8zm17.1 38.5c.6-.3.9-.9.9-1.5s-.3-1.2-.9-1.5C16.5 38.4 12 30.7 12 22.4V10.3h37.6v12.1c0 8.3-4.6 16-11.9 19.9-.6.3-.9.9-.9 1.5s.3 1.2.9 1.5c7.4 3.9 11.9 11.5 11.9 19.9v12.1h-3.5c-.6-5.9-4.5-7.9-9.3-10.5l-5.2-2.7c-.5-.3-1.1-.3-1.6 0l-5.2 2.7c-4.8 2.6-8.7 4.6-9.3 10.5H12V65.2c0-8.3 4.5-16 11.9-19.9z"/></g></svg>