<svg id="Layer_1" xmlns="http://www.w3.org/2000/svg" viewBox="0 0 242.6 242"><style>.st0{fill:#95c648;stroke:#000;stroke-miterlimit:10}.st1{fill:#ebebeb}.st2{fill:#A7CE3A}.st3{fill:#464646}</style><path class="st0" d="M91.7 194.6l-9.5 9.5-7.6-7.5v-14.7l-6.5-6.6h-6.5l-4.6 9.1v17.1L71.5 216h20l15.1-15.2v-86.7H91.7zM104.1 6.7l-3.8-1.3-8.6 5.5 1.1 4.1 15.4 1v-5.8z"/><path class="st1" d="M66.6 176.8l11.2 24.1 4.5 3 7.5-5.1 1.8-85-38.1.5c-3.2 9.7-5 20-5 30.8 0 14.6 3.2 28.4 9 40.9l9.1-9.2z"/><path class="st1" d="M171.5 51.5l13 16.4 9.3 28 .9 17.8-85.9.3.6 73-2.4 16-11.8 11.2-12.4 3.6-1.8-.3c17.1 15.2 39.7 24.5 64.4 24.5 53.6 0 97-43.4 97-97 .2-44.6-29.9-82.1-70.9-93.5z"/><path class="st3" d="M170.5 43.1c-15.8-15.8-35.9-25.6-57.6-28.4v-1.4c0-7.1-5.5-13.1-12.6-13.3-7.4-.2-13.4 5.7-13.4 13v1.7C66.4 17.4 47.3 26.3 32 40.5l-.4.4c-.8.7-1.5 1.5-2.3 2.2-4.4 4.4-8.3 9.1-11.7 14.1-.1.1-.2.3-.3.4C10.6 67.4 5.8 78.2 3 89.5c-.1.5-.2.9-.3 1.4-.1.3-.1.6-.2.9C.8 99 0 106.3 0 113.8c0 1.7 1 3.2 2.6 3.9.6.3 1.2.4 1.8.4h82.4v73.6c0 2.4-1.9 4.5-4.2 4.6-1.2 0-2.3-.4-3.2-1.2-.9-.8-1.3-1.9-1.3-3.1v-5.7c0-7.1-5.5-13.1-12.6-13.3-7.4-.2-13.4 5.7-13.4 13v5.5c0 16.7 13.4 30.5 29.9 30.8h.5c8 0 15.6-3.1 21.3-8.7 5.9-5.8 9.1-13.5 9.1-21.7V118h82.4c.6 0 1.3-.1 1.9-.4 1.6-.7 2.6-2.3 2.6-4 0-26.5-10.4-51.6-29.3-70.5zM95.5 13c0-2.5 2.1-4.5 4.6-4.3 2.3.2 4 2.2 4 4.5v.8c-1.4-.1-2.9-.1-4.3-.1-1.5 0-2.9 0-4.3.1v-1zM8.8 109.4c2-42.6 33.5-77.7 74.5-85.3-3.7 5.1-7.1 12-10 20.7-5.8 17.4-9.1 40.2-9.5 64.5h-55zm95.4 67.4V192c0 5.9-2.3 11.3-6.5 15.5-4.2 4.1-9.7 6.3-15.6 6.2-11.8-.2-21.4-10.1-21.4-22.1v-5.4c0-2.3 1.7-4.3 4-4.5 2.5-.2 4.6 1.8 4.6 4.3v5.9c0 3.6 1.4 6.9 4 9.4s6 3.8 9.5 3.6c7-.3 12.5-6.1 12.5-13.2v-73.6h8.7v58.7zm31.7-67.4c-.1-5.4-.3-10.7-.7-15.9-.2-2.3-2.1-4.1-4.5-4-2.5.1-4.4 2.2-4.2 4.7.3 5 .6 10.1.6 15.2H72.6c.4-23.4 3.5-45.2 9-61.8 5.2-15.7 12-25 18.3-25 6.3 0 13.1 9.3 18.3 25 2.6 7.8 4.7 16.7 6.2 26.4.3 2.2 2.3 3.8 4.6 3.7 2.5-.2 4.4-2.5 4-5-1.6-10.2-3.8-19.6-6.5-27.8-2.9-8.7-6.3-15.7-10-20.8 41 7.6 72.5 42.6 74.6 85.3h-55.2z"/></svg>