<svg id="Layer_1" xmlns="http://www.w3.org/2000/svg" viewBox="0 0 256.6 257.7"><style>.st0{fill:#95c648;stroke:#000;stroke-miterlimit:10}.st1{fill:#ebebeb}.st2{fill:#A7CE3A}.st3{fill:#464646}</style><path class="st2" d="M28.5 79.6V37l6.9-6.9h76.1l6.3 6.3v42.9z"/><path class="st1" d="M188.9 68.2v33.3h7.8l7 7v42.7l-6.9 6.9h-8.4V175l-13.1 13.1h-14.5v4.5l-11.9 11.9h-76c16 31.6 48.8 53.3 86.6 53.3 53.6 0 97-43.4 97-97 .1-43.5-28.3-80.2-67.6-92.6z"/><path class="st3" d="M81.4 132.7c-2.2 0-4.1-1.8-4.1-4.1 0-2.2 1.8-4.1 4.1-4.1 1.4 0 3 .7 4.4 2.1 1.6 1.6 4.2 1.5 5.8-.1 1.6-1.6 1.5-4.2-.1-5.8-2.1-2-4.1-3.1-6-3.7v-4.7c0-2.2-1.8-4.1-4.1-4.1s-4.1 1.8-4.1 4.1v4.8c-4.7 1.7-8.1 6.2-8.1 11.5 0 6.7 5.5 12.2 12.2 12.2 2.2 0 4.1 1.8 4.1 4.1s-1.8 4.1-4.1 4.1c-1.7 0-3.6-1.1-5.3-3.1-1.4-1.7-4-1.9-5.7-.5-1.7 1.4-1.9 4-.5 5.7 2.2 2.6 4.7 4.4 7.4 5.3v4.8c0 2.2 1.8 4.1 4.1 4.1s4.1-1.8 4.1-4.1v-4.8c4.7-1.7 8.1-6.2 8.1-11.5 0-6.7-5.5-12.2-12.2-12.2zM136.8 136.8c-2.2 0-4.1 1.8-4.1 4.1s1.8 4.1 4.1 4.1 4.1-1.8 4.1-4.1-1.9-4.1-4.1-4.1zM48.8 67.6c2.2 0 4.1-1.8 4.1-4.1V47.2c0-2.2-1.8-4.1-4.1-4.1-2.2 0-4.1 1.8-4.1 4.1v16.3c.1 2.2 1.9 4.1 4.1 4.1z"/><path class="st3" d="M192.1 96.1V63.5c0-11.2-9.1-20.4-20.4-20.4H149V12.2C149 5.5 143.5 0 136.8 0H61.1c-6.7 0-12.2 5.5-12.2 12.2v14.7H36.6c-6.7 0-12.2 5.5-12.2 12.2v4.1h-4.1C9.1 43.1 0 52.3 0 63.5V188c0 11.2 9.1 20.4 20.4 20.4h124.5c9.8 0 18.1-7 19.9-16.3h6.9c11.2 0 20.4-9.1 20.4-20.4v-10.6h4.1c6.7 0 12.2-5.5 12.2-12.2v-36.6c0-8.9-7.3-16.2-16.3-16.2zm8.2 16.2c0 4.5-3.6 8.1-8.1 8.1v-16.3c4.4.1 8.1 3.7 8.1 8.2zm-28.5-61c6.7 0 12.2 5.5 12.2 12.2v57h-18.7V96.1c0-9.8-7-18.1-16.3-19.9V51.3h22.8zM57 12.2c0-2.2 1.8-4.1 4.1-4.1h75.7c2.2 0 4.1 1.8 4.1 4.1v63.5h-18.7V39.1c0-6.7-5.5-12.2-12.2-12.2H57V12.2zm40.7 63.5V35h12.2c2.2 0 4.1 1.8 4.1 4.1v36.6H97.7zm-24.4 0V35h16.3v40.7H73.3zM32.6 39.1c0-2.2 1.8-4.1 4.1-4.1h28.5v40.7H32.6V39.1zM20.4 51.3h4.1v24.4h-3.2c-6.7 0-13.1-4.9-13.1-12.2-.1-6.7 5.4-12.2 12.2-12.2zm124.5 149H20.4c-6.7 0-12.2-5.5-12.2-12.2V79.5c3.6 2.7 8.2 4.3 13.1 4.3H145c6.7 0 12.2 5.5 12.2 12.2v24.4h-28.5c-6.7 0-12.2 5.5-12.2 12.2V149c0 6.7 5.5 12.2 12.2 12.2h28.5V188c-.1 6.8-5.6 12.3-12.3 12.3zm39.1-28.5c0 6.7-5.5 12.2-12.2 12.2h-6.5v-22.8H184v10.6zm12.2-18.8h-67.6c-2.2 0-4.1-1.8-4.1-4.1v-16.3c0-2.2 1.8-4.1 4.1-4.1h63.5c2.9 0 5.7-.8 8.1-2.2V149c.1 2.2-1.8 4-4 4z"/><path class="st3" d="M171.8 136.8H153c-2.2 0-4.1 1.8-4.1 4.1 0 2.2 1.8 4.1 4.1 4.1h18.7c2.2 0 4.1-1.8 4.1-4.1s-1.8-4.1-4-4.1z"/></svg>