<svg xmlns="http://www.w3.org/2000/svg" viewBox="0 0 34.1 41"><g fill="#000"><path d="M0 1.3v28.9c0 .5.2.9.7 1.1l15.6 9.3c.2.1.4.2.7.2.2 0 .5-.1.7-.2l15.9-9.9c.4-.2.6-.7.6-1.1V1.3c0-.7-.6-1.3-1.3-1.3H1.3C.6 0 0 .6 0 1.3zm2.7 1.4h28.8v26.2L16.9 38 2.7 29.5V2.7z"/><path d="M15.8 10.6c0-2.8-2.3-5.1-5.1-5.1s-5 2.3-5 5.1 2.3 5.1 5.1 5.1 5-2.3 5-5.1zm-7.4 0c0-1.3 1.1-2.4 2.4-2.4s2.3 1.1 2.3 2.4S12 13 10.8 13s-2.4-1.1-2.4-2.4zM17.6 25c0 2.8 2.3 5.1 5.1 5.1s5.1-2.3 5.1-5.1-2.3-5-5.1-5-5.1 2.3-5.1 5zm7.4 0c0 1.3-1.1 2.4-2.4 2.4s-2.4-1.1-2.4-2.4 1.1-2.3 2.4-2.3c1.4 0 2.4 1.1 2.4 2.3zM24.9 6.9c-.6-.4-1.4-.3-1.9.2L8.9 25.7c-.4.6-.3 1.4.2 1.9.2.2.5.3.8.3.4 0 .8-.2 1.1-.5L25.2 8.8c.4-.6.3-1.5-.3-1.9z"/></g></svg>