<svg xmlns="http://www.w3.org/2000/svg" viewBox="0 0 36.2 37.7"><path fill="#000" d="M36.2 19.4C36.2 8.7 28.1 0 18.1 0 8.3 0 .3 8.5.1 19.1c-.1.3-.1.6-.1.9v6.9c0 3 2.4 5.4 5.4 5.4s5.4-2.4 5.4-5.4V20c0-3-2.4-5.4-5.4-5.4-.6 0-1.1.1-1.6.3C5.5 8.1 11.3 3.1 18.1 3.1c6.9 0 12.7 5.1 14.5 12-.6-.2-1.2-.3-1.8-.3-3 0-5.3 2.4-5.3 5.4v6.9c0 2.2 1.4 4.2 3.3 5-.7 1.2-2.2 2.8-5.2 2.8H16c-.8 0-1.5.7-1.5 1.5s.7 1.5 1.5 1.5h7.6c5 0 7.5-3.3 8.4-5.6 2.4-.6 4.2-2.7 4.2-5.2v-6.6l.1-.6c-.1-.3-.1-.4-.1-.5zM5.3 17.7c1.3 0 2.3 1 2.3 2.3v6.9c0 1.3-1 2.4-2.3 2.4C4 29.3 3 28.1 3 26.9V20v-.1c.1-.2.1-.3.1-.5.3-1 1.2-1.7 2.2-1.7zm25.5 11.5c-1.3 0-2.3-1-2.3-2.3V20c0-1.3 1-2.3 2.3-2.3s2.3 1 2.3 2.3v6.9c0 1.3-1 2.3-2.3 2.3z"/></svg>