<svg xmlns="http://www.w3.org/2000/svg" viewBox="0 0 91.2 63.4"><path fill="#A5D027" d="M38.5 20.6H11.1l-3.3 2.5v26.8l2.7 2.7h17.4l-11.3-.7-1.6-.5-1.1-3.5 2.4-5.9 4.5-2.2-1.5-2-1.2-4.5 1.4-4 1.3-2.7 7 1.8 2.3 3-.3 4.8-2.4 3.1 6.1 6.7.3 6.6h4.3l2.6-2.6V22.9z"/><path fill="#464646" d="M37.4 19H11.1c-2.6 0-4.8 2.1-4.8 4.8v25.4c0 2.6 2.1 4.8 4.8 4.8H37.3c2.6 0 4.8-2.1 4.8-4.8V23.8c.1-2.6-2.1-4.8-4.7-4.8zm-5.2 31.7H16.3v-1.6c0-4.4 3.6-7.9 7.9-7.9 2.1 0 4.1.8 5.6 2.3 1.5 1.5 2.3 3.5 2.3 5.6v1.6zM19.5 33.3c0-2.6 2.1-4.8 4.8-4.8s4.8 2.1 4.8 4.8c0 2.6-2.1 4.8-4.8 4.8s-4.8-2.2-4.8-4.8zM39 49.2c0 .9-.7 1.6-1.6 1.6h-2.1v-1.6c0-3-1.2-5.8-3.3-7.8-.8-.8-1.7-1.5-2.7-2 1.7-1.5 2.8-3.6 2.8-6 0-4.4-3.6-7.9-7.9-7.9s-7.9 3.6-7.9 7.9c0 2.4 1.1 4.6 2.8 6-3.5 1.9-6 5.6-6 9.8v1.6H11c-.9 0-1.6-.7-1.6-1.6V23.8c0-.9.7-1.6 1.6-1.6h26.3c.9 0 1.6.7 1.6 1.6v25.4zM50.1 22.2c-.9 0-1.6.7-1.6 1.6s.7 1.6 1.6 1.6c.9 0 1.6-.7 1.6-1.6s-.7-1.6-1.6-1.6zM79.6 22.2H56.5c-.9 0-1.6.7-1.6 1.6s.7 1.6 1.6 1.6h23.2c.9 0 1.6-.7 1.6-1.6s-.8-1.6-1.7-1.6zM79.6 31.7H50.1c-.9 0-1.6.7-1.6 1.6 0 .9.7 1.6 1.6 1.6h29.5c.9 0 1.6-.7 1.6-1.6 0-.9-.7-1.6-1.6-1.6zM79.6 41.2H50.1c-.9 0-1.6.7-1.6 1.6s.7 1.6 1.6 1.6h29.5c.9 0 1.6-.7 1.6-1.6s-.7-1.6-1.6-1.6zM79.2 51.5c-.5.3-1.1.7-1.4 0-.2-.4-.3-.8-.5-1.2-.5-.9-1.4-1.3-2.4-1.2-1.2.1-2.4.6-3.5 1-.7.2-1.4.5-2.1.8.1-.7.1-1.4-.6-1.6-.5-.2-1.2.2-1.7.4-.6.2-1.2.5-1.8.8-1.2.6-2.4 1.2-3.7 1.7-.6.2-1.2.5-1.9.6-.1 0-.2.1-.3.1.3-.3.6-.6.9-1 .2-.3.3-.6.1-1-.3-.6-1-.6-1.6-.5-.9.2-1.8.4-2.7.7-1.7.5-3.4 1.2-5.1 2-.9.5-.1 1.8.8 1.4 1.3-.6 2.5-1.2 3.9-1.6.6-.2 1.3-.4 2-.6-.3.3-.6.5-.9.8-.2.2-.3.7-.1 1 .6.8 1.5.7 2.4.5 1.1-.2 2.2-.6 3.3-1 1-.4 2.1-.9 3.1-1.4.5-.2 1-.5 1.5-.7.2-.1.5-.2.7-.4-.1.4-.3.7-.3 1-.2.7.6 1.2 1.2.9 1.3-.6 2.6-1.1 3.9-1.5.8-.3 2.7-1.2 3.4-.5.3.3.3.7.5 1.1.2.4.4.8.7 1.1.9.8 2.1.4 3.1-.1.8-.7 0-2.1-.9-1.6z"/><path fill="#464646" d="M86.4 0H4.8C2.1 0 0 2.1 0 4.8v53.9c0 2.6 2.1 4.8 4.8 4.8h81.7c2.6 0 4.8-2.1 4.8-4.8V4.8C91.2 2.1 89 0 86.4 0zM88 58.7c0 .9-.7 1.6-1.6 1.6H4.8c-.9 0-1.6-.7-1.6-1.6V15.9H88v42.8zm0-46H3.2V4.8c0-.9.7-1.6 1.6-1.6h81.7c.9 0 1.6.7 1.6 1.6v7.9z"/></svg>