<svg xmlns="http://www.w3.org/2000/svg" viewBox="0 0 1225.9 661.4"><style>.st0{opacity:.59;fill:#edeef0}.st1{fill:#f06c2f}.st2{fill:#fff}</style><path class="st0" d="M552.3 182.9c-.1 1.2.4 1.7 1.6 1.5-1.6 3.3-5.4-3.6-2.6-1.4.2-1.3.5-1 1-.1m-308.6-94c-.5.3-1 .6-1.5.8-1.1-2.6-2.4-2.4-5-2.4 1.5-1 3.1-2 4.6-3-2.2-.9-1.9-1.7.8-2.4-3.3-1.7-5.7.7-8.7-.8-3.3-1.6-5.1.4-7.2 2.4.8.3 4.3 1 4.3 2.1 0 1.7 0 4-2.4 3.6-1.3-.2-2.2-3-3.6-2.5-4.4 1.5 0 3.9 2 5 2.4 1.3 8.6 10 11.3 6.3 1.4-1.9 1.2-.8 3.7-2.1 1.5-.8 3.6-3 .9-3.9 2.2-.2 2.4-1.2.8-3.1m304.4 93.9c-.3.9-.1 1.7.5 2.5-.2-1 0-2 .6-2.9-1.7-.3-1.8-.3-1.1.4m-237.8-58.2c5.2 4.7 9.1-3.3 5.9-5.2-2.7-1.7-9 2.4-5.9 5.2m20.1-25.1c-1.3-4.4-5.4-.8-7.7-2-2.8-1.4-3.8-5.1-6.6-6.8-3-1.8-8-2.9-10.6 0-.5.6-8 2-7.8 2.4-.6-1.1 1.5-2.6 1.2-3.9-.4-2.3-2.7-3.2-3.3-5.4-1.4-5.1-10 .2-13 .7.3-1 .5-2 .7-3-8.6-1-13.3 2.5-16.7 10-1 2.2-.7 4.5 0 6.8.1.5 7.7 1.8 9 3.3-2.7-.2-5.4-.5-8.1-.7 1.1 2.3 4.7 5.9 7.4 4.7 3.3-1.5 2.1 1.3 4.5 2.1 3.6 1.1 7.6-.4 11.2 1 5.9 2.3.9-.4 3.8-.1 1.2.1 1.6 1.9 3 1.4-1-1-2.1-1.9-3.1-2.9 3.6 1 7 2.1 10.8 1.1-.7-1.4-1.1-2.6-2.8-3.1 1.8-1.7 5.9 3.1 6.2 4.7 2-2.1 5.5 2.6 6.8 3.7-2.5.7-3.4.8-3.4 3.7 5.7-2.2 5.9-1.2 10.7 2.1 8.1 5.4.7 10.3-3.5 14.5 7.6 5.8-6.2 4.4-9.8 3.9.2.8-6 7.1-.4 6.8 3.7-.2 6.1-1.6 9.7-.8-.3-2.9 2-1.6 2 0 1.7-1.1 2.5-.9 3.4.8 1.6 2.8 2.8 2.6 5.4 4-.9.5-1.8.9-2.8 1.4 1.4.8 2.7 1.7 4.4 1.6-1 1.6 4.3 1.7 5.7 3.7 1.5 2.1 8.8 2.7 11.2 3.3.4-3.4-1.6-4-4.4-5.9-2.7-1.9-3.3-1.5-5.3-4.9 1.3.6 5 3.5 3.1-.1 1 .6 9.1 7.3 10.1 7-2.2-5.8 1.8.6.5-3-.6-1.6-2.7-5.4.9-.7-.2-1.4.2-3.3-.6-4.6-.7-1.1-2.2-.8-2.5-2.3-.3-1.6-3.9-6.2-4.6-2.5-.8-2.6-.6-5.7-3.7-4.6-1-2.9-2.1-3 1.9-2.5-.1-1.3-2.6-6.3 2-3.8 3.7 2.1 2.4 3.4 6.9 1.8.6 2-1.5 2.3-2.8 2.9 1.9 2.3 3.9 4.1 6.7 5.3.6-1.9.1-4-.1-6 2.4 1.7 4 .1 6.2-1-.9-.4-1.8-.9-2.6-1.3.8-1.1 2.7-.2 3.7 0 .7-5.7-1.8-4.9-6.8-4.8 2.6-4 .7-1.6-1.9-3-1.5-.8-2.3-2.4-3.8-3.3-3.8-2.3-8.5-3.3-12.6-5.2 1-.1 2.1-.3 3.1-.4-.2-1-.3-1.9-.5-2.9 1.5.3 2.9.6 4.4.9-1.1-3.1-3.5-1.7-6.4-2.8 1.7-1.1 3-1.5 5-1.3 0-1.9-1.9-2.7-3.2-3.5-.3 1.8-2.1 2.2-3.5 2.9.5-1.8-1-1.6-2.2-1.8 1.6-.5 4.4-.5 5-2.5-2.3-1.2-6.3-4.7-9-3.9-1.4.4-1.6 3.2-3.6 2.6-2.8-1 2.6-3.5 3.1-3.8M222.7 65.3c-.9 0-1.6.4-2.2 1 .9-.2 2 .1 2.9 0-4.2 2.9 8.8 1.1 9.7 1-1.1 2.3-2.2.5-3.7 2.6 1 0 1.9.2 2.7.7-4-.6.2 3.2 1.7 1.7 1.7-1.7 4.6 1 6.7-1.1-2.3-1.1-1.1-3.9.4-2.4.3-1.3 0-7.6-1.8-8.3-1.3-.5-9.4-1.7-10.1.2-.2.6 2.9 1.2 3.1 2-3.4-.8 0 2.1.6 3-1.8-1-3.1-2.6-4.9-3.6-2.3-1.3-4.7.8-.9 1-1.3.5-1.3 2.3.4 1.8-.4 1.6-3.5.3-4.6.4m.2 45.8c.7-4.4 3.3.9 4.1-2 .8 1.3 1.6 1.7 1.8-.1.2-3.4-1.1-1.9-3.8-3.1-1.9-.8-9.1-3.6-8.6-6.2.8-3.6-1.3-9.1-3.7-11.8-2.7-2.9-5.1-2-8.3-3.6.4.6.3 4.5.5 5.2.4 1.1 3.9 8.1.1 6.8-1.9-.6-1.8-6.1-3.2-7.6-1.6-1.5-4.4-1.6-6.4-1.3 1.1 1.1 2.1 2.2 3.2 3.4-3.6-.9-3.3 1-6.5 1 2.1-2.8-.6-3.7-3.7-4.7-1.5-.5-1.7.7-2.3 1.7-.7 1.1-2.7.8-3.8.8 2.6-2.1 2.3-6.4-1.9-4.8-4.3 1.6-8.3 3.4-11.9 6.2 3.3.6-2.1 3-1.7 5.5 1.5-.3 4.2-.7 2.9 1.3 2.4-.1 4.8-.2 7.3-.3a458 458 0 0 0-7.6 3.4c2.8 2.8 5.1 2.3 9 2.3 2.2 0 12.9-.3 13.9 2.1.6 1.4-7.3.5-7.3.5-4.4-.8-7.9.8-12.1 1.7 1.1 3.6 4 5 7.6 5.3 1.7.1 3.4.1 5.1.1-.1 1.6-.2 3.9 1.8 4.4 3.1.8 11 .2 13.8-1.3 1.3-.7 8.3-5 9.3-4.6-1.9 3.5 6.8 1.3 3.7 3.2 3.2 0 6.2 2 9.4 1 4.1-1.4.2-1.9 1.7-4-1.9-.5-3.2.7-4.4 1.9.3-1.3.1-2.4-.7-3.5 1.1.1 1.9.4 2.7 1.1m10.6 3.5c.8 1 1.3 1.5 2.2.4.2 1.2 1.2 1.9 1.7.6 1.7 4.9 8.4 1.6 10.9.1-2.4-2.2-5.1-4-7.7-6-1.9-1.5-5.1 1.5-3.2 3-.8.1-3.4 1-3.9 1.9m316.1 66.1c-.8.1-.9.4-.3 1 6.1-5.5-1.4-2.3.3-1m-250-33.3c-1.9-1.4-3.1-1.8-5.4-1.4 2.8-2.8-9.2-10.1-11-7.6-2.1-2.5 2-1.4.7-3.9-1.5-2.7-3.9 2-4.1 3.1-.4 1.9-1.4 4.1-.8 6.1.6 2.2-2.3 3.2-3.3 4.8 3.9-.4 4.6-2.2 5.9 1.9.8 2.5 6.6-4.8 8.3-5.5-.3 2 1.7 3 3.3 3.5 2.9 1 3.6.8 6.4-1m-40.4-73.5c.8 1.9 3.2 0 4.1-.6 2 4.2 5.7.2 6.6 2-.1-5.5 1.1 0 1.4.6.6 1.1 8 1.9 7.2-.8 1.1 1.5 4 2.1 4.6-.2.4 1.4 1.8 1.4 3 1.1 2.6-.5 2.5 0 2-3.1 1.6 0 1.3 1.2 1.8 2.2.8 1.7 3.9 1.5 5.4 1.4 3.8-.3 4-2.4 7.3-3.4-.9-.7-1.9-1.1-3-1.2.8-.6 1.7-1.2 2.5-1.9-3.2-2.7-7.4-5-11.6-3.6-1.4.5-12.8 1.1-9.6 2.8-1.7-.4-3.3-1.1-5-1.4-.7-.1-3.5 1-3.8.8-1.1-.7-6.8-3.2-7.2-4.4-.2-.9 3.6-.2 3.9-1.5-1.6-.4-3.8-.6-4.5-2.1-1.2-2.5-4.8-.3-6.7-.7-.7-.1-16.3-6.4-13.7-1 2.4 5.2 6.4 3.2 10.7 3.2 5.7 0 3.2 8.8 4.6 11.8m59.3 47.3c-1.2 1.3 3.9 1.4 4.5 1.4-.5-2-2.9-3.1-4.5-1.4M270.2 18.4c-1.6 1.4-3.3 2.8-4.9 4.2 4.3 3.1 13.5-.6 18-1.8-4.9 2.5-10.2 1.8-14.9 4 2.6.7 5.7 2.6 8.3.9 2.7-1.9 5.3-2.5 8.6-2.8-2.9.9-5.4 2.1-7.7 4.2 1.3.2 8.5 1.9 9.3.4.9-1.6 4.5-3.5 2.2-1.3 1.5-.5 3.1-.9 4.6-1.4-1.2 1-2.3 1.9-3.5 2.9 3.1-.6 6.6-.7 9.7-1.6 3.2-1 6.8-4.6 10.1-6.1-1.5 1.4-3.1 2.8-4.6 4.2 1 .4 1.9.9 2.9 1.3-6.1 1.6-12.2 2.9-18.4 4 2.1 1.9 4.1 3.8 6.2 5.7-2.7-1.6-5.8-5.2-9.2-5.3-2.7-.1-5.4.1-8.1-.3-2.5-.3.1 4.3 1.4 4.8 4.4 1.8 7.3 4.6 9.6 8.9-4.1-2.2-10.2-2.7-13.7.8-2 2-1.5 3.2 1 3.7 3.7.8 4.6-1 7.1-3.4-1 2.9-4 5.6-.5 8.1 3 2.1 6.3-2.1 8-4-2.4 3.4-4.8 6.7-9.5 5.4-1.5-.4-1.9-2-2.8-2.9-1.5-1.6-5.2-.9-7-.2 1.2 2.2 1.8 3 4.3 3.2-2 2.1-5.3 2.2-7.9 3.3-2.1.9-1.1 5.6 2.2 1.8.1 2 3.2 4.1 4.1 1.4.6 3.4 14.3.9 14-.6.7 1.5 4 3.2 4.2.4 2 2.1 4.8-1.1 3.6 3.9 1.3-.4 7.8-3.3 8.2-3 2.6 1.9 4.6-3.1 1.2-4.3-.6-.2-5.9 1.9-2.6-1.7.9-1 1.9-1.7 2.9-2.5 1.7-1.5-1.1-2.8-.2-3.5 1.1-.9 3.4 1.2 4.7.8 2.1-.7 3.3-1.6 4.6-3.4-1.1-.6-2.3-1.3-3.5-1.9 2-.3 4.1-.5 6.1-.8.3-2.7-5.1-2.7-6.8-3.1h7c.6-3-6.4-2-7.9-2.2 2.6-.3 5.1-.6 7.7-.9 3.1-.4 5.6.6 4.4-3.1 4.3 1.1 6.6.7 9.7-2.9-1.5-.1-3.1-.2-4.6-.2 2.9-.6 6.4-.7 9-2.2 2.1-1.1 3.8-2.9 5.9-3.9 2.4-1.1 9.8-2.8 10-6.2-6.3 1.3-12.6 2.5-18.8 3.8 3.8-1.1 7.7-2.3 11.5-3.4-2.2-.4-4.4-.8-6.7-1.1 4.9-.4 9.8-.7 14.8-1.1 4.2-.3 7.6-3.8 11.1-5.7-8.5-3-15.3-3.9-24.1-2 2.1-1.2 4.2-2.4 6.3-3.5-4-.6-7.9-1.7-12-1.7-3.9 0-7.6 1.2-11.5 1.7l1.5 3c-5.5-3.7-8.8-3.8-15.5-3.9 1.8 1.5 3.7 3 5.5 4.6-8.8-3.6-15.6-5.1-23.3 1.5 3.6 2 7.3 3.9 10.9 5.9l-12-3c-4.1-1.1-5.3-3.7-9.9-3.9 1.5 3.9-.4 2.4-3.7 2.5 1.1.5 2.1 1 3.2 1.5-3 .2-6.6-1.2-9.5.3-2.9 1.5-.5 2.4-3.9 1.4-2.6-.8-5.3.9-7.5 2.1 4.9 2 6 2.3 11.1.2m-41.3 32.8c-.7-.9-4.8-2.3-5.2-.4-.5 1.9 4.6.2 5.2.4m71.9 109.3c6.5-6.2-5-5.4 0 0M540 212.7c-.3.3-.7.6-1 1 2.8 2.4 6.6-1.2 9-2.5 3.3-1.8 3.2-.2 4.6-4.6.5-1.5-.4-3.3-1.3-4.4 1-.7 2.3-1.3 2.7-2.6 1-3.2-2.6-4.4-5.1-3.8 1.5-2.3-9.7.8-3.1 3.2-2.2 1.7-3.5-.2-5.2.8-1.5.8-.5 2.9-1.9 4.4 1.2.7 2.6 1.1 4 1.2-1.2 1-2.3 2.2-3.2 3.4 1.3-.5 2.7-.7 4.1-.4-2.2.5-3.6 2-5.6 2.5 2.3.3 2.2.7-.1 1.4.6 0 1.4.2 2.1.4m-253.2-57.2c1.5 4 7-.4 7.3-3.4-1.6 0-8.4.2-7.3 3.4m-32.6-83.8c-.9-4.7-9.2-5.6-10.7-.9-1 3.4 11.9 8 10.7.9m-39.4-29.3c-.2 0 6.6-2.1 3 0 9.4 1.7-7.9 2-1.7 4.6 1.5.6 3.3-.4 4.7-.9 1.7-.5 4.6 1.1 6.5 1.3 2.4.3 4.1 6.2 7.6 2.7 1.9-1.9-2.6-3.4-2.1-5.1.8-2.6-2.5-2.8-4.3-2.5.3-1.8-.9-2.5-2.5-2.2-2.4.4-2.2 1.8-3.6-.5-2-3.2-8.3-2.9-9.5.8 1 0 2-.1 3-.1-.5.7-.8 1.3-1.1 1.9m.8 13.6c1 1.1 1.6-.9 1-1.6-1-1.2-3.4-4.1-5.3-3.2 1 3.6 2.3 2.4 4.3 4.8m20.6-23.8c-.9-2.2-5.7-1.3-4.3 1.3 1.9.8 5.9 2.8 4.3-1.3m6.5 15.9c-1 .3-2 .5-3 .7 2.9 1.3 2.3 2.2 5.8 1.3 1.1-.3 3-.2 3.7-1.4.7-1.2-.8-1.6.5-2.9-.9-.3-15.2-5.5-11-1.2-3.8.7 3.6 3.1 4 3.5m-51.8 1.1c-1.4.2-3.9-.1-4 1.9-.1 1.5 2.1 4 4 3.5 1.3-.3 5.7-.7 6.5-1.9 1.5-2.2-1.9-1.5-2.4-2.5 1.6-.3 3.2-.5 4.3-1.9-2.7-1-5.8.5-8.4.9m5.8 13.2c2.5 1.6 5.5 1.6 1.2 3.3 3.5 1.6 5.4 3.3.1 3-.8-.1-4.3.6-4.6-.7-.5-1.9-1-2-2.8-1.8 3.7-1.9-12.5-7.3-12.7-4.1 0 1.1 3.2 1.3 3.9 1.5-1.3-.1-6.8-1-6.8 1.2 0 2.1 5 .8 6.3.8-2.1 1.4-5.7-.4-7.8 1.4-1.9 1.6 6.2.4 6.9.2-2.4 2-7.2.3-8.8 3.4 1.8.6 3.2.8 5 .4-.6 2.8 1.9.9 2.4.6.9-.1 1.4.4 1.6 1.4 1.9-1.1 2.7-2 3.2-4.1 1.6.5.9 2 .7 3.1 1.1-.1 4.1.6 4.3-1.3.8 2 3.9.8 5.1 0-2.8 3-7.6 3.1-11.2 4.3 4.6 3 8.4 1 13.2-.7 1.6-.6 4.6-2.4 6.4-1.9 2.6.8 2.2-.5 4.4-.5 3.3-.5 5.4.7 6.3-3.6.5-2 .1-4.1-2.5-3.7-3.1.4-.6 1.4-1.9 3.2-.7-2.5-4-3.4-5.2-6.1-2.3-5.3-2.9-2.3-6.7.7m46.5-30.7c.5 3.7 4.6 4.1 7.5 2.9-.9 1.4-3.9.8-4.2 2-.7 2.1 8.6 1.6 9.1 1.3.7-.4 4.7-1.7 6.6 0l-4.8.6c2.4 1 4.9.5 7.3.3-4.4.8-8.9.6-13.1 2.3 1.3.8 2.7 1.3 4.2 1.6-6 .5 3.3 1.6 4.6 1.9-1.5.2-2.9.3-4.4.5 1.9 3.1 6.1 2.5 9.1 2.7-.2-.8-.7-1.3-1.5-1.6 1.8-.1 3 .9 4.3 2-.7-1.4-1.4-2.9-2.1-4.3 1.4 1.4 2.9 2.8 4.3 4.2.6-1.5 1.1-2.6.1-4.1 5.5 2.9-.2-2.6 3.5-3.7-.2 1.3 0 2.4.7 3.5 1-.9 2.8-1.6 2-3.3 1.4 1.2 5.6-1.5 7.1-1.9-.7-1.3-2.9-5-3.7-1.5-.2-2.9-3.4-1.2-4.9-.6 1.3-2.5 2.2-4.4-1.4-4.8 2.7-2.4-5.1-6.4-1.7-.3-3.2.2-2.3-1.7-3.2-3.5-.1-.2-4.8-.8-5.9-2-1.9-2.1-8.9-9.1-12-4.6 1.6.1 3.2.4 4.8.8-1.7 3-6.7-1.1-8.3 3 1.3.4 3.1.1 4.2 1.1-4.2.9-4.9 2.2-8.1 3.4.9.4 5.1.1 3.3 1.2 1.5.7 3-1 4.4 0-1.8.3-1.9.9-.5 1.7-2.2-.7-4.8-.7-7.3-.8m-26.4 31.9c1.2 1.4 6.7 1.9 6.2-1.1-1.7-.2-4.9-.3-6.2 1.1M172 64c-1.1.3-6.6 2.2-5.9 4 1.1 2.7 6.4-1.9 5.9-4m379.7 121.4c-1 .7.6.9 0 0M208.1 83.8c2.8.9 6.2 6.7 8.2 1.6 1.8-4.7-6.9-5.1-8.2-1.6m11.7-12.5c-2-5.5-7.6 3.4 0 0m-3.7-11.1c1 2.1 3.5 3.6 5.8 1.3-2.1-1.3-3.4-2.3-5.8-1.3m37.7-6.6c.5-.8 1.1-1.5 1.6-2.3-3.5-1-7.4-1.3-10.6.6.7 3 6.8 1.6 9 1.7m45.8 34c1.5 2 4.1 1.6 6.1.9 2.8-.9 5-.7 7.9-.5-3.8-5-7.4-4.6-12.7-6.5-5.6-2.1-2.9 3.9-1.3 6.1m-37.4-34.9c-2.5 2.3 4.9 2.2 5.4 2-.1-2.4-3.6-3.6-5.4-2m2.3 5.9c-1.3 1 1.8 2.8 2.7 2.4-.5-.7-.2-4.3-2.7-2.4M1077 74.9c2.8.1 10.7.8 11-3 .2-2.6-6.4-1.7-7.7-1.3.8-2.8-3.9-1.7-5.1-.7-.1-2.6-2.9-2.1-3.7-.2-.9 2.5 4.1 4.2 5.5 5.2M751.4 99.1c3.1 3.3 13.9 7.4 18.1 3.9-6.5-4.5-9-10.4-3.4-17.1 2.2-2.6 4.4-5.2 6.5-8 2-2.5 6.2-3.9 8.7-5.9 5.7-4.4 13.9-5.7 20.7-7.7 2.2-.7 6.6-1.8 6.9-4.7.3-2.9-3.4-2.9-5.3-2.6-2.6.4-3.9 1.5-6.1 2.7-4.1 2.3-8.5 2.7-13 3.2-7.9.9-14.7 4.8-20.2 10.3-1.8 1.8-6.7 5.7-7.1 8.3-.2 1.3 1.2 2.6.1 3.6-1 1-2.3 1.5-3.4 2.3-2.1 1.5-.1 3.8-3 5-3.3 1.4-.9 5.2.5 6.7m7.2-69.6c-3.3-1.2-4.5-.7-7.1 1.4 3.5.5 4.4.8 7.1-1.4m14.4-9l-2.7-2.4c1.8-.5 3.6-.9 5.5-1.3-5.7-1-8.1 1.8-12.8 4.7 4.1.6 6.1.6 10-1m-.1 85.6c.5 1.3 6.9 5.7 6.7 3-.4-3.2-4.9-4.1-6.7-3m4.8-73.8c-.7-1.6-2.4-.5-3.5-.3 1 1.6 2.2 1.7 3.5.3m-6.6-7.6c-4.3-1.4-10.3-3.2-13.7.9 4.9 1.2 9.3 2.6 13.7-.9m-33.5 2c-1.6 1.1-3.3 2.2-4.9 3.3 2.6.9 5.3 1.3 8 1.3-1.6-2.4-1.1-3.5 1.6-3.3 2.4-.6 4.8-1.1 7.2-1.7-3.6-2.4-5.1-1.1-9-.6-4.9.6-8.6-.1-13.6 1.5 4.3 1 6.5.6 10.7-.5m1.7 89.3c1.3 1.3 4.4-1.8 5.3-2.5-2.9-2.7-9.4-1.5-5.3 2.5m-92.4-8.9c3.1-.5 5.6-1.7 7.7-4.1-.8.1-1.4.5-1.8 1.2-1.2 1.5-3.1 1-4.8 1.2.3.9 0 1.5-1.1 1.7M191.2 46.3c1 .6 9.6.4 9.1-1.5-1-4-12.4-.5-13.7 1.5 1.7 1.2 2.8-1 4.6 0M772.9 28c-2 .1-7.8-.1-8.8 2.2-1.3 2.9 11.1 2.3 8.1-.3 1.1-.2 2.1-.3 3.2-.5-.8-.4-1.7-.9-2.5-1.4M1043 73.2c3.1 2 5.5 3 7.1-.8 2.4 3.8 6.1-2.2 7.9-.1 1.8 2.2 6.6 2.7 4.2-1.4 2.8 1.2 5.1.3 6.9-2.2-4-1.5-15.7-8.9-14.5-1.1-2.3-1-7.1-6-9.9-3.8-4 3.3-5 5.3-1.7 9.4M551.8 193.3c.9-.4 1.1-1 .5-1.9-1.5.6-1.1 1-.5 1.9m504.7-108.9c2.1 1.7 4.2 1.4 6.7 1.3-.9-3.6-3.8-4.3-6.8-5.8-1.5-.8-1.1-4.4-4.1-2.4-2.3 1.5.3 3.1 1.5 4-1.4 1-2.8 1.9-4.2 2.9 2-.2 5.2-1.5 6.9 0M795.2 25c2.1-.5 1.4-2 1.3-3.6-1.1-.1-2.2 0-3.3.3-.4.8-.8 1.6-1.3 2.4-1.8 1-3.6-1.5-4.9 1 2.3 2.3 5.2.6 8.2-.1m-18.6 3.3c1.7 0 9.6 2.6 9.2-2.5-.1-1.5-2.3-2.9-3.7-2.5-1.6.4-3.2.9-4.8 1.6-1.2.4-4 3.5-.7 3.4m135.6 20.1c1.7 2.4 5.7 0 7.5-.9 2.2-1 2.3.8 4.3.4s4-.7 6-1c2.1-.4 5.6-4.4 1.6-4.7-1.8-.2-2.5-1.3-3.6-2.6-.8-.9-3.1 0-4 .1 3.9-3.6-3.5-1.9-5-.3-2.7 2.7-4.2 6.2-6.8 9m-25.8-13c2-.1 4.1-1 6.1-.4 2.4.8 2.6 4.4 5.1 5.4 2.2.9 5-.3 7.4.3 3.7.9 5.4 1.4 9.1.3-.9-3-.1-3.5 0-6.4.2-3.4-6.4-.4-7.4-.1.9-1 1.8-2 2.7-2.9-3.4-.8-8.1-3.9-2.4-5.6-1.9-1.3-6.1-6.7-8.9-5.1-.8.5-.1 1.4-1.2 1.7-1.7.5-5.9.9-6.8 2.7-.5.9-.1 2.4-1.2 2.8-1.1.5-3.2.2-3.9 1.4-2 3.3-1.3 3.9 1.4 5.9m300.8 66.8c3.5-1 7 .7 9.9-2.6-3.2-2.9-5.8-2.6-10-2.8-5.3-.2-4.8 3.1-4.1 6.6l4.2-1.2m-558.6 10.7c-1.1.5-2.8.7-2.3 2.4 1.2-.5 1.9-1.3 2.3-2.4m-8.9 7.6c.9.2 1.6-.2 1.9-1.1-1.1-1.2-1.8.2-1.9 1.1m4.9-6c-.7.8-1.5 1.6-2.2 2.5 1.7.3 4.9-.2 2.2-2.5m-62.3 61c.6.2 1.2.1 1.7-.3-2.7-.3-1.4-.3-1.7.3m89.3-70.9c.9-.5 1.4-1.3 1.7-2.2-2 1.1-2.9.3-5.1.7.3 2 1.9 1.6 3.4 1.5m-98.7 87.5c.3-.5.6-1 .9-1.6-1.1.1-1.4.6-.9 1.6M625 118c-1.5 0-2.9-.2-2.8 1.8.9-.6 1.9-1.2 2.8-1.8m-70 74.6l.6 1.5c.5-.7.3-1.2-.6-1.5m-.8-8.9c-.4.2-2.1 5.4-2.6 5.5.9.9 3.1-.1 1.2-1.3 1.2.8 2-.6 2.7-1.2.5.6-3.5 6.7-2 8.1.7.6 1.3-4.7 2.5-5.1-.7.4-.9.9-.6 1.6.8 0 1.2-.4 1.4-1.2 1.1 1.8-2 6.9-.4 8.2 0-.7 4.1-2.1 6.4-1.8-3.1.7-1.4 5.6.5 4.2-.8 1.1-1 3.6.3 4.5-.8-.2-1.5-1.1-1.1.3-1.1-.2-4.3-1-5.1-.7 1.3 1.1.6 2.2-.5 2.9 2.6-.5 2.7-.6 2.5 1.8-.2 2.1-2.8 2.2-4.2 2.8 1 2.5 2.2.2 4 1.2-1.9 1.6 4.6.4 5.2.2-2.2 2.6-1.3 1.8-4.6 2.1-1.3.1-4.9 4.6-5.8 5.7 2.2 1.6 7.7-2.3 9.9-2.3 2.3 0 3.7-3.1 6-1.4 1.2.9 7.9-.3 8.4-1.8.4-1-2.9-1.5-3.5-1.6 1.6-1.2 5.5-4 4-6.7-1.1-2-4.3.6-5.3-.6 2.1-1.5-1-4.1-2.6-4.1 1-.4 1.8-.1 2.4.8-.6-3.4-4.1-4.5-5-7.6-1.1-3.7-3.3-4.6-6.9-5.1.6-.9 1.4-1.2 2.5-1-1.3-2.7 4.5-4.9 2.8-7.5-1.5-2.2-6.8.1-8.2.5 1.8-1.2 1.7-1.9-.4-2 1.4.2 4.4-2.5 4.7-4.1-1.7-.4-5.3.2-6.4.2-1.4.1-1.9 3.1-.6 4.2-3.2-2.2-.9 1.8-2.7 1.5.1.5.4.8 1.1.8m4.1 15.7c-.8.4-1.2 1-1.3 1.8 1 0 1.8-.7 1.3-1.8m72.1-82.5l3.9-4.2c-1.2 1-4.4 2.4-3.9 4.2m6.8-8.2c-.7.7-1.4 1.4-2.2 2.1.6 0 5.4-1 2.2-2.1m-4.5 2.3c-1 .3-2.8 1.8-1.5 3 .9.8 3.4-2 4-2.4-.6-1.1-1.5-1.3-2.5-.6m7.8-3.1c-1.2-.8-2.1-.6-2.8.6 1.1.6 2.1.9 2.8-.6m-11.7 7.4c-.4.8-.9 1.6-1.5 2.2.9-5.4-1.3 0-2.5 1.3 2.5.4 1.8-.6 3.8-1.4 1.6-.8 1.3-2.8.2-2.1m-3.1 4.9c0 1.5-.8 2-2.1 2.1.9.6 1.4.9.2 2 1.3-1.3 2.2-2.1 1.9-4.1m1.6-.6c-1.4-.6-1.8-.1-1 1.6 1.1-1.1 2.2-2.2 3.2-3.3-1.2.1-1.9.6-2.2 1.7m15.7-11.2c-1.7-1.1-4.1.9-5 2.1 1.7-.6 3.3-1.3 5-2.1m1.3-1.9c-.5 0-1 0-1.6.1 0 .9.4 1.3 1.3 1.2.2-.4.3-.9.3-1.3m169.3-22.9c-2.1.2-1.7 1.8-1.8 3.5 1.9-.3 3.8-.7 5.7-1-.6-1.9-2-2.7-3.9-2.5m201.8 213.7c.1.9.2 1.8.4 2.7.4 0 3.5-4.2 3.1-.5-.2 2.2-2.5 4.4-1 6.7 1.8 2.9 5.6-6.2 6-7.1 1.1-2.4-3-3.1-3.7-4.1 1.7-1.5 3.7.6 4.5-2.3 1.1 1.8 2.8.1 4.2-.3 2.7-.8 3.6-1.1 6.6-.9-2.3 2-.9 3.8.9 5.3.9-1.3 1.9-4 4-3.6-1.3-1-1.4-2.1-.1-3.1 3 4.8 5.3-3.1 7.5 1.4.8-1.3 1.7-2.5 2.8-3.6-.9 4 .3 2.2 1.7.5 1.5-1.7 1.1-1.9 1-4.3 0-1.6.9-9.1 2.9-8.1 0-2.8 1.6-4.4 1.6-7.3.1-2.7-2.1-3.7-1.4-6.8-1.9-1-2.8.7-2.3 2.3-.9-3.5-3 .4-3.6 1.8-.9 2.2.7 3.3-.2 6-1 3-1.9 6.5-5 8-1.8.9-6.4 1.8-3.1-1.2-2.7 1-3.1 3.6-4.9 5.9-2.3 3-.9 1.9-4.9 2-5.1.1-5.3 2-9.1 4.5-2.4 1.6-2.7-.1-3.4 2.5-.5 1.9-3 2.6-4.5 3.6m-3.4 119.8c-4.3 3.9-5.3 9.2-.6 13.5-.2-1.5-.9-5.4 1.9-4.2-.3-.2-3.2-2.3-1.8-2.6 1.1-.3 1.4-1 1.2-2-1.1-2.1-.3-1.8-.7-4.7m76.3 100.8c-1.5-1.3-.1-3.2-1.1-4.5-1.1-1.5-3.4.8-3.6 0-1.7-5.7-2.2-8.8-7.5-11.6-.7-.3-3.9-1.6-3.9-2.7 0-2.4.8-5.4-1-7.4-1.7-2-2.6-13.5-7-9.8-.8-5.1-2.5-9.8-4.4-14.5-5.1 1.2-3.2 13.3-3.4 16.6-.2 4-2.8 14.8-8.1 8.5-2.3-2.8-5.6-4.2-8.6-6-3.9-2.3-3.9-2.8-2.9-7 .9-3.8 5.7-5.3 1.1-8-3.2-1.9-9.1-1.8-12.6-1.6l.3 3.9c-2.6-.4-5.9-2.1-7.8.8-1.9 2.7-2.5 5.8-3.2 8.9-5.6-3-7.6-5.7-12.4-.9-3.9 3.9-9.2 6.3-12 11.2-1.1 1.9-1.3 4.3-2.5 6.2-1.7 2.7-7.7 2.8-10.5 3.5-5.9 1.4-11.1 4.1-13.4 10-.5-1.1-.9-2.3-1.4-3.4-1.3 3.2-2.5 6.7-1.9 10.2.6 3.7 1.8 5 .6 8.6-.8 2.5 1.6 5.4 2.5 7.6 1.6 3.8 2.7 7.7 3.3 11.7.3 2 1 4 1.2 6 .4 2.9-1 2.8-2.5 4.9-2.7 3.7 9 7.7 11.9 4.8 4.7-4.7 11-4 17.3-4.2.7 0 1.9-3.5 2.5-4 2.7-2 5.7-2.4 8.9-2.3 2.4.1 3.9-2.1 5.9-3 2.7-1.2 8.2.7 11 1.3 8.3 2 8.6 5.8 13.4 12 2.6-3 5.1-6 7-9.5 1.2 3.8-1.3 7.1-3.2 10.1 3.1.7 3.5-2 4.6-4.2.2 1.8-.1 3.7.4 5.4.5 1.6 2.2 1.3 3.1 2.7 2.8 4.4 2.1 9 8 10.9 1.9.6 4.5 1.4 6.5 1.1 1.6-.2 3.7-3.5 5.2-2.7 2 1.1 1.9 3.8 4.7 3.1 2.4-.6 3.4-3 5.6-3.7 4.4-1.4 6.8-.7 7.7-6.3 1.1-5.9 2.1-8.9 5.4-14 3-4.6 5.1-13 5.3-18.5.1-3.3-.6-6.6-1.2-9.8-1.1-5.1-3.3-6.7-7.3-10.4m-85.3-78.5c-1 2.7 3.3 2 4.6 1.5.1-2-3.9-3.7-4.6-1.5m17.7 30.2c-1.7 1.1-3.7-1-3.9 2 1.4.4 2.7.3 4.1 0 .7-.5 1.8-2.5-.2-2m74.3-24.2c1.9-4.3-4-6.6-7.3-8.7-.4 1.4 2.5 2.4 3.3 2.9 2.9 1.6 2.7 3.1 4 5.8m-17.3 143.7c-4.9 1.9-5.7 1.7-10.7-.5-.4 3.2 2.1 18 8.7 13.2 2.2-1.6 6.2-11.3 2-12.7m5.5-141.1c-1.4-.2-2.7-.1-4.1.1 2.8 6.7 14.4-.2 12.6-2 3.2-.7-1.6-7.1-1.4-.4-.5-.1-6.2 4.3-4.7.8 0 0-2.1 1.4-2.4 1.5m-12.6-.4c-2.1-2.3-1-3.5-4.2-5.5s-6.4-3-9.9-4.4c-5.4-2-14.1-7.9-18.4-1.4-3.3 5-5.8 1.8-7-3.2-.7-3-.3-3.5-3.2-4.2-3.2-.7-6.4.2-8 3.2 2.1.4 3.3-.2 3.6 2 .3 2.2 5.3 1.1 6.6 1 .4 2.3-4.6 1.4-6.7 1.9 1.1 1.8 2.1 3.7 3.2 5.5.9-1.2 1.9-2.3 2.8-3.5.8 4.6 7 5.4 10.8 7 4.7 2 5.1 3.9 7.2 8.8-2.8.8-3.5 1.1-3.9 4.1 2.4-.2 4.8-.5 7.3-.7 1.2-.1 2.1 2.6 2.9 3.3 1.5 1.5 6.3.8 7.9-.2 1.3-.9 1.3-3 2.3-4.2 2.1-2.5 7.7 1.4 9 2.7 2.2 2.3 4 5.1 7.5 5.6 1.7.2 5.4 2.4 6.9 1.8-.6-.7-3.8-2.8-2.3-4-1.2-.3-3.2-.1-2.3-2.1-1.2 0-2.5-.2-3.2-1.3-1.7-2.6-3.9-4.4-4.9-7.2 8.5-.9-2.7-3.6-4-5m-12.3-230.4c-.1 4.6-1.4 7.9-.5 12.3.7 3.9-1.5 7.8.2 12 .8-3.5 4.9-6 4.6-.7 1.7-1.8-.4-4.5-1.3-6.1-1.5-2.6-1.6-3.6-.8-6.5.5-1.9 1.3-2.7 3.3-3 2.1-.4 1.8 3 3.7 3.1-1.5-2.7-2.4-5.6-3.1-8.6-.7-2.6-3.2-6.6-2.8-9.2.2-1.5 1.3-13.6-2.6-10.6 4 4-2.2 3.7-1.4 6.9.6 2.1-1.7 5-.6 6.9.6 1 2.6 2.1 1.3 3.5m-61.8 173.9c.9.2 2.2-.9 1.6-1.8-1.1-1.6-3.6 1.4-1.6 1.8m-2.4.6c.4-2.4 2.1-4.9 2.7-7.3-1.6.7-3 5.5-2.7 7.3m5.6-7.6c-.9.4-1.7.2-2.3-.6.1 1.2 3.1 7.6 2.3 4.2 1.9 4-.1-2.8 0-3.6m-5.1-3.1c.4.8 1 1.5 1.8 2 .5-1.7-.8-3.6-2.8-3.5.5 1 .3 1.9-.4 2.7.5-.4 1-.8 1.4-1.2m2.6-1.2c0 .6 3.9 5.8 4.3 5.2 2-3.7-1.4-5.4-4.3-5.2m-8.2 2.9c.2 2.8-.1 6.6 3.8 4.7-3.2 4.2 1 7.5.9 3.4 0-1.4 1.9-3.6 1.2-5-1.4-2.4-3.2-3.4-5.9-3.1m-8.8 49.3c-.7 2.2-2.5 6.1-1.1 8.2 1.1 1.6 2.7 0 2 3.1-.3 1.5-1.8 4.9.4 5.5 3.1.9 2.6-2.3 2.9-4.5.1-.7-.7-6.4-.3-6.7 2.8-2.1 1.6 2.2 1.8 3 .8 2.4 4.4 7.5 6.4 3 .9-2.1-1.4-1.4-2.1-2.8.3-.6.5-1.2.7-1.8-1.2-2.3-2-2.9-3.6-4.6 3 1.1 4.2-5.1 7-3.3.8-3-10.7 3.7-11.3-2.4-.4-4.5 5.6-3.2 8.5-3.2 1.8 0 3.2 1.6 5 .8 2.1-1 3.2-3.7 3.9-5.7-2.5 0-3 4.3-5.7 3.4-2.2-.7-4.2-.6-6.6-1.4-5.4-1.9-6.8 6-7.9 9.4m3.6-55.7c1 1.7 2 3.4 2.9 5.1 2.7-3.2.6-5.2-2.9-5.1m-19.1 81.5c0 6.5 6.1-2.5 0 0m87.8-205.2c-.3 1.4-4.8 7.8-.9 9.2-.5-.2 3.1-1.5 3-1.5.6-.8-2.9-1.9-2.7-3.3.1 0 5.7-.1 5.5-.2.9.8 3.3 3.3 4.7 2.6.3-.1 1.1-3.3 2.1-3.8 2.2-1.3 4.4-.1 6.4-2.4-3.6.1-.9-2.8-1.5-4.6-2.3 2.4-3.2 1.7-5.9.3-1-.5-6-6.1-6.1-6-2.1 3.6 2.4 11.7-4.6 9.7m-445.8-58.9c1 7.5 5.7-3.1 0 0m84.6 93.3c-.9.4-10.9 3-7.2 3.9 4.8 1.2 4.7-1.7 7.2-3.9m-28.3 2.8c.1-2.3-4.5-1.4-5.5-1.5-1.9-.2-3.4-2.7-3.9.4 3.1.9 6.2 1.2 9.4 1.1m-51.7-96.7c-.7 2.2 2.2 2.9 2.6 5.1.3-2.1 2.4-3.7.9-4.6 4.5-.9-2.8-4.9-.7-.8-1-.1-1.3-.6-.8-1.5-2.1-.4-.5 1-2 1.8m41.8-15.5c-2.1-.6-3.6-.4-5.6.2 1 .8 1.3 1.9.9 3.1 1-1.8 3.1-2.2 4.7-3.3m-50.5 89.1c0 .3-.5 4-.6 4.2-.7 1.1 0 2 1.2 2.4 1.4.5.7-1.4 1.6-1.7 1.9-.6 2.5-6.2 1.8-7.8-.8-1.9-4.1.7-5.5.2-.7 1.9 1.2 1.3 1.5 2.7m616.7-119c-1.2-.1-2.3-.4-3.5-.4-2.3 0-.5 3.4 1.3 3.5 1.2.1 3.2-.9 4.2.3 1.5 1.9 3.8 2.2 4.7-.5-2.2-1-4.2-2.8-6.7-2.9M635 186.2c.7-1 1.7-1.8 2.9-2.3-1.1-1.2 0-2.1.7-3-3.4-.9-3.8 2.9-3.6 5.3m7.1-16.9c-.2-.9-.5-1.3.4-1.1-.1-1-.6-1.3-1.4-.9-.5.8-.2 1.5 1 2m-39.7 89c-1.3 1.1 1 3.2 2.1 3.2.7-2.3 1.1-4.4.8-6.8-.1 0-2.3 3.2-2.9 3.6M1103 449.5c-1.1-.6-.9-1.9-2.2-2.3-.1 1.4.9 4.7 2.3 5.4 3.3 1.4 1.8-2.2-.1-3.1m-73.4-153.1c.7-.3 3.2 2 3.3-1.4.2-3-3.1-1.8-4.8-1.3-1.5.4-3.1 1.6-3 3.6.3 5.2 3.1-.3 4.5-.9m-20.1 142.7c-1.6 2.1 2.5 2.8 2.9 1.2.4-1.4 6.4 1 7.3 1.6 1-4.8-7.9-5.8-10.2-2.8m154.6 153.1c0-1.4-.4-2.7-1.1-3.9-4.4 2.4-5.3 8.6-9.1 11.9-1.7 1.4-5.4 2.5-6.6 4.1-1.4 1.9-6.1 6.3-6.1 8.7 0 1.1 9.5 3.8 10.5 3.5 2.1-.8 4.8-6 5.4-8.1.8-3 2.5-4.3 4.9-6 .2.8.7 1.3 1.5 1.4-1.4-2.8-.2-3.7 1.6-6 2.6-3.4 2.8-3.7 1.6-7.7-.8.7-1.7 1.4-2.6 2.1m-18 24.2c-1 .4-.7 2.1-1.2 2.9 1.2-1.2 4-.7 1.2-2.9m34.9-41c-2.3 1.5-3.8 1.4-6.4.8-2.1-.5-.7-4.1-2.6-5 .6 5.6-3.4-1.9-3.9-3.4-.8-2.7-2.6-4.9-5.7-5.8.6 1.3 1.3 5.3 3 3.9 2.7 5.7 7.6 12.1.8 17.2 3.7 3.2 7.2 3.5 2.8 8.5 4 2.5 5.3-.9 7-4.2.6-1.1.6-4.2 1.6-5 .4-.3 2.8-.2 2.8-.2.4-1.4 3.6-6.4.6-6.8M581.6 269.8c4.1 3.2 4.7-2.8 0 0m631.8-133.5c-.1 3.8-2.4 4-1.4 8-1.2-.1-9.8-2.7-9.9-3-.4-1.6-.2-4.4-2.5-4.5-1.6-.1-7.9.6-7.8-1.7.1-1.3.3-3.1-1.7-2.8-1.9.3-1 4.8-1.1 6-.2 3.1-8.3 3.3-10.4 3.9 4.2 3 3.3 5.6 6.1 9.5 3 4.3-2.2 3.6-4.9 2.8-4.9-1.5-10.5 4-14.5 6.5-3.8 2.3-9.3 4.2-11.1 8.6-4.5-4.4-10.2-4-13.8 1.3 0-1.2-.1-2.5-.1-3.7-1 .6-2.1 1.2-3.2 1.8-1.7.8-2.9-.4-4.5-.1-2.8.6-6.4 9.3-7.8 11.6.9.3 5.4.7 5 2.3-.7 2.8-.8 4 1 6.4-1.5.7-3.2 1.4-4.4 2.7-1.4 1.7.4 4.6-.7 5.5-2.8 2.5-6.5.9-6.5 5.6 0 4.2-4.1 2.2-4.8 5.2-1.1 4.4-3.7 6.5-6.4 9.9-2.2-10.2-10.1-28.9 1.3-36.4 2.8-1.8 6.1-2.5 8.3-5.2 2.8-3.5 4.9-6.1 8.5-8.8 3.3-2.5 5.2-3.2 6.2-7.4s.8-4.3 4.6-5.1c-3.2-.8-6.1-1.3-7.8 2-2.1 3.9-5.5 5.8-8.8 8.5-1-2.8-.8-5-.2-7.8-3.2 1.9-5.5 1.2-8.9 1.9-4.5 1-8.7 7.4-11.5 10.6 1.5 1.3 4.1 3.1.6 3.6-3.8.5-7.6.9-11.4 1.4l3.3-2.4c-3.6-.7-8.1-2.8-11.4-.4-2.9 2.2-8.6.1-12.1.2-2.2.1-6.2-1.1-8 .5-4.6 4.3-9.1 8.6-13.5 13.1-3.4 3.5-7.3 6.4-11.3 9.2-5.2 3.7 1.7 1.8 3 3.5 2.1 2.5.4 4.5 4.6 4.5 2.8 0 2.1-4.4 5.4-3.3 9.2 3 6.4 10.4 4.8 17.8-2.3 10.3-6.8 19.7-13.7 27.8-2.4 2.8-6.6 8.4-10.2 9.5-1 .3-3.8 1.4-4.7.3-1.5-1.9-1.6-2.2-3.7-.7-2.6 1.9-3.5 2.9-4.6 6-1.6 4.7-5.6 7.6-9 10.9 8 7 10.3 20.8-3.7 20.4.4-2.5-.5-9.5.9-11.2 3.5-4.2-5.4-2-5.9-4.5-.9-4 3.8-4.8-.6-7.5-3.3-2-8.8 3.4-11.6 5.1-1.3-3.2 1.7-5.7 3.7-7.7-3.9-3.1-6.6.6-9.9 3.1-.5.4-7.1 3.1-6.1 4.2 1.1 1.2 4.4 6.9 6.1 6.1 4.2-2 6.8-1.1 11.1 0-4 3.4-8 6.8-12 10.1 4.5 3.8 6.2 7.8 8.6 13.2-2.1-.4-4.1-.8-6.2-1.1 2.2 1.6 4.4 3.2 6.5 4.8-1.6 1.1-3.2 2.3-4.8 3.4l6 1.8c-6.4 11.8-10.8 22.3-23.8 27.6-1.8.7-16.6 5.5-16.4 6.9 1.2 7.2-4.9.2-.9-.7-4.1-3.2-12.3-.1-13.9 4.9-.8 2.7-1.8 3.4-.2 6 1.8 2.9 3.7 5.7 5.8 8.4 3.6 4.6 4.9 7.7 5.3 13.5.4 6.6-10 12.4-14.7 15.9-1.2-1.3-.2-2.9-.2-4.3.1-1.6-2.5-3.5-3.5-4.5-1.5-1.6-3-3.4-4.8-4.7-3.2-2.3-5.8-.1-5.2-4.7-4.7.2-4.2 7.8-5.6 11.6-1.6 4.2 2.7 4.7 3.6 8.4 1.2 4.8 3.8 5.4 7.3 8.6 2.4 2.2 3.4 4 3.3 7.3-.2 3.9 1.3 6.5 2.6 10.1-5.4-.9-9.6-5.7-11.2-10.6-2-6.3-3.2-9.1-7.9-14-3.6-3.8-.9-8-1.1-12.7-.3-8.4-2.3-16.1-4.8-24-2 2.5-3.7 6.5-7.2 5.7-3.2-.7-1.8-2.9-1.3-5.6.7-3.4-1.7-7.8-3.8-10.4-3-3.6-4.6-6.2-6.5-10.5-4.7 3.3-8.5 4-14.4 4.4-2.7.2-.1 2-1.3 3.2-2.6 2.7-5.3 5.5-8 8.2-3.7 3.8-6.9 8.2-11.9 10.2-4.7 1.8-2.2 7.1-2.3 11.1-.1 4.7-2.7 7.3-.6 12.1 1.5 3.4 7 7.8 5.6 12.1-.7 2.4-4.6 4.3-5.9 1.3-2.2-5.1 1-9.6-3.1-14-.5 4.6-2.2 5.2-6.1 7.7-4.7-8.9-8.2-18.2-12.7-27.2-4.2-8.3-2.7-18.7-3-27.8-1.1 1.4-3.2 6.1-5.3 6.1-3.8.2-5.3-3.5-7.6-5.9 1.5-.3 4.8 0 5.1-2.3-4.2.4-9.6-2.1-11.3-6.3-2-4.8-3.8-4-8.7-3.2-5.2.8-9.4 1.7-14.7.3-2.7-.7-6.3-.9-8.8-2.1-1.9-1-1.9-5.3-4.4-4.9-2.6.4-4.4 1.3-7.1 1-3.3-.5-4-2.4-6.7-3.7-4-1.9-4.9-9.7-8.5-10.2-3.7-.5-8.3 1.6-5.7 5.8 3.2 5.1 6 10.3 8.8 15.7l.9-5.7c1.6 2.8 1.3 5.9 1.4 9 3.2-.2 7.1.5 10-1.3 3-1.8 4.6-5.3 6.9-7.9.2 2.2-.6 6.1 1.6 7.6 2.3 1.5 6.2 2.5 7.3 5 1.3 2.9 2.8 2.1 2.5 5.5-.1 1.8-4.9 8-5.4 4.4-.9 2.1-.7 5.2-1.8 7-1 1.7-5.8 3-7.6 3.8-1.4.7-.6 3.3-2 4-2.3 1.1-5.7-.8-7.9 2.2-3.2 4.4-9.9 3.5-12.6 7.8-1.3 2.1-8.1 2.6-10.4 3.2-2.8.7-3.5 3.1-6.9 2.7-2.5-.4-3.6-14.8-4.7-17.3-1.5-3.5-3.6-6.8-5.7-10-1.3-2-4-1.9-4.7-4.3-1.3-4.7-1-9.8-4.8-13.5-2.3-2.3-7.8-16.3-11-15.5.2-1.9.5-3.9.8-5.8-.8 2.3-1.5 4.6-2.3 7-2.4-2.6-4.2-5.6-5.7-8.7-2.8 3.6 7.4 18.5 9 21.7 1.5 3.1 1.1 6.2 3.9 8.7 2.9 2.6 2.8 7.2 3.1 10.9.3 3.7 3.1 4.2 4.9 7 1.5 2.3 2.2 10 4.5 11 3.1 1.3 14.6 9 10.1 13.3 4.3 1.3 3.3 5.3 8.6 3.9 4.9-1.3 9.9-2.7 14.8-4 2.5-.6 5.7-1.7 4.9 2.1-1 4.2-2.3 8.5-4.5 12.2-4.9 8.6-9.3 15.9-16.4 23-6.2 6.2-11.3 12.8-16.1 20-1.7 2.5-3.5 5.1-4.6 7.9-1.1 2.7 1.2 3.9 1.5 6.5.3 3-.8 5.9 1 8.5 2.9 4.3 3.3 8.2 3.3 13.4 0 4.5.1 8.2-3.1 11.8-2.7 3-7.2 2.8-9.7 5.7-1.9 2.2-7.4 6.5-7.9 9.5-.4 3.1 3.1 6.3 3 9.8-.1 3.4.4 6.8-3.2 8.3-2.7 1.2-6.3 1.4-6.5 5-.1 2.5.6 7.1-.9 9.2-3.4 4.9-6.2 10.4-10.8 14.4-1.9 1.7-6.1 6.8-8.7 7.3-5.2 1.1-10.3 2.2-15.5 3.3-4.5.9-7.2 2.6-10.6-1.1-3.5-3.9-2-4.2-3.3-8.8-1.1-3.7-3.2-7.4-4.7-11.1-1.4-3.4-5.4-5.5-5.8-8.9-1.3-9.7-2.6-17.8-7-26.7-1.7-3.4-4.7-7.3-3.9-11.2 1-4.5 1-9.1 2.3-13.5 1.5-4.9 4.1-8.1 2.9-13.5-1.3-6.2-2.9-12.3-4.4-18.4-1.8-7.6-10.9-11.8-9.9-19.9.5-4.4 4.1-16-2.4-18.3-2.4-.8-5.2.8-7.7.3-3.6-.7-4.1-7.4-7.8-7.6-4.9-.2-10.1.8-14.5 3-3.8 1.9-6.1 3.7-10.3 2.5-4.7-1.3-7.8.1-12.3 1.7-5.4 1.9-14.3-6.7-18.3-10.4-5.9-5.6-9.4-15.1-13.5-22.1-1.5-2.7-4.1-5.2-2.8-8.3 1-2.4 3.7-6.1 3.1-8.8-.9-4.1-1.8-8.2-3-12.2-1.2-4.4 1-6.5 3.1-10.2 4.4-8 7.7-17.3 15.7-22.2 2.2-1.3 4.9-2.3 5.3-5.1.5-3.2.1-9.3 2.7-11.6 1.9-1.7 4.5-2.4 6.5-3.9 2.7-2 2.1-5.9 4.4-8.1 2-1.9 2.9 1.2 4.7 1.9 2.3 1 4.4-.6 7.1.7 1.5.8 7.2-3.6 8.9-4.3 4.2-1.7 8.4-2.7 12.8-3.5 1.3-.3 2.4-.1 3.5.6 2.3.9 2.7-.7 4.7-1.1 3.5-.6 6.7 1.3 10.1-.7 1.3-.6 2.6-.5 3.9.3 3.5 1.7.9 1.4.7 4.3-.1 1.6 1.8 2.9 1.1 4.5-.7 1.5-2.2 2.4-3.3 3.6 1.7 1.6 3.3 4.1 5.7 4.7 3.2.8 9.4 1.2 11.8 3.5 2.4 2.2 1.8 4.1 5.7 4.9 2.6.5 5.7 3.4 8.2 3.2 5.5-.4.1-8 4.3-9.1 1.3-.4 8.5-2.5 8.9 0 .6 3.2 5 .8 6.7 3.1 1.3 1.8 10.4 3.9 13.5 3.7 2.5-.2 4.6-3 7.2-2.2 2.7.8 4.7 2.1 7.7 1.4 4.5-1.1 6.1-7.1 7.5-10.9.7-1.8 2.2-5.1.9-7-1.2-1.8 1.9-5.1.8-6.2-.7-.7-5.9 1.2-6.5 2-3.6 4.7-8.2-3.2-11.9-2-1.6.5-.8 2.4-3 2.8-2.1.4-4.2-1.9-5.8-2.8-3-1.7-7-8.7-4.2-11.8-5.8.7-1.2-3 1.2-3.4 3.1-.6 5.8-.2 8.7-1.8-6.7-3.4 3.4-1.3 5.1-2.2 1.9-1 3.4-2.6 5.4-3.4 2.5-1 5.2.4 7.8-.5-1.1 1.9 19.8 9.9 22.3 1.5 1.2-4.1-7.3-9.9-10.3-11.5-2.1-1.1-11.2-6.2-3.4-4.7-.7-2.4.8-3.7 3.1-3.7-1.2-.7-2.1-1.6-2.9-2.8-.1 0 6.6-2 4.8-2.7-2.1-.9-7 1-8.2 2.6-.6-1.8-4.2 1-5.3 2.1.9-1.9-1.4-.6-1 1.1.9 3.4 3.6 2.8 6.4 2.8-.9 1.7-2 1.4-3.6 1.3-1.9-.1-3.7 2-5.4 2.7-2.2.9-2.5.3-2.4-1.6.1-1.7-2.2-2-3.3-2.5 7.3-3.9.8-2.6-3-5.3 1.2.1 3.1.8 3.8-.7-2.7 1.3-4.6-1.3-7.2 1-1 1-2.8 2.3-3 3.8-.2 1.4.2 3.6-1.4 4.1-1.8.6-1.7.8-2.1 2.9-.5 2.8-2.3 3.2-3.4 5.5-2.2 4.3 5 6.5 4.4 8.1-.5 1.4-2.9.4-3.7.3-2-.1-4.9 3.8-6.2 5-.2-1.7.9-2.2 2.1-3-3.1-1.3-7-2-10.1-.8-1.4.5.1 3.8-3.7 1.1-2.4 2.7 3.4 4.6.5 7.7 2 1.4 4.5 2.2 4 5.1-1.2-.9-2.2-2.1-3.5-.5 2 .4-.1 3.5.5 5.4-2.1-.4-3.7-2.8-5.4-1.5-.9-3-1.6-4.3 1-6.5-4.8 0-4.1-5-7.1-7.5-3.2-2.6.8-6.9-2.4-9.3-1.6-1.2-3.1-2.5-4.7-3.7-1.9-1.4-4.8-1.8-6.4-3.2-2.6-2.3-2.5-5.8-5.3-7.9-1.2 3.5-1.8-2.2-4.4-1.5-3.2.9-2.3 2.8-2.3 5.7 0 1.7 2.5 2.5 3.6 3.3 1.6 1.2 1.7 2.5 2.4 4.3 1.1 3 6.7 2.9 7.1 4.2-1 .7-1 1.2 0 1.6l3.6 2.1c1.4.8 5.6 3.2 3.9 5.4-1.4-.7-2.1-2.5-3.6-3-2.6-.9-2.2 3.6-.9 4.6 2.1 1.7-4.7 8.1-4.7 5.6-2.6 1.5.3 7.5-3.4 6.3-1.5-.5-4.5-2.7-6.1-3.6-.7-.4-1.4-1-1.1-1.9.6-1.6 2.8-.4 4.2-.3 2.5.2 6.6.2 7.4-2.4 1.5-5-3.4-8.2-6.5-10.7-1.3-1-2.3-.5-3.6-1.3-2-1.2-3.6-3.4-5.4-4.8-3.2-2.4-2.7-6.5-6.3-8.4-3-1.6-4.8 1-7.1 2.6-3.8 2.7-4.5 2.8-9 1.3-5.1-1.7-5.5 1.9-5.5 5.7 0 2.8-6.3 4-8.1 5.9-1.2 1.3-2 2.9-2.9 4.4-1.7 3-.3 1.7.1 4.4.6 3.6-5.1 5.2-6.2 7.3-2.2 4.1-7.5.1-10.7 3-2.9 2.6-6.8-.6-4.4-2.3-1.3.6-2.2-.9-3.3-1.1-.9-.2-5.3.4-6 1 .4-2.1.5-3.9.3-6.1-.1-.6-2.3-1-1.5-3.3 2.1-5.7.7-10.2 1.8-15.9-1.2 1-2.7-2.7.8-3.2 3-.4-1.3-1.3 2.2-1.6 1.3-.1 2.2 1.3 3.5.9 4.7-1.2 17.2 4 19-2 .7-2.4.5-5 .5-7.5-.1-4-2.6-3-3.4-6.1-.5-1.9-.3-2.7-2.7-3.1-1-.2-7.7-2.6-4.9-3-.9-.4-1.4-1.1-1.5-2.1 3.5-.2 4.6-1.9 6.6.2.5.5 2.5-.3 2.9-.4 2.8-.8 1.1-3.3.3-5.2 3.4.3 3.9 3 8.2 1.3-2.7-.1 4.1-3.1 3.6-5.4-.6-3.3 7.3-4.1 9.1-4-.9-.1-1.7-.4-2.4-1.1.1 1.2 2.2-2.1 2.1-1.9.6-.8 1.1-1.6 1.3-2.6.7-2.5 1.2-1.3 2.6-2.9 1.7-2 3.7-1 5.9-1.6.1-.5.3-.9.5-1.2 1.8-.2 2.9-.2 4.7 0-.3-1.7 1.3-1.3 2.3-1.4-3.2-1.2 0-6.5-2.8-8.7-5.8-4.9 4.8-10.2 7.7-11.6-1.3 1.8-2.2 6.1.9 6.9-1.2 1.9-3.7 3.1-4.3 5.4-.8 2.9 2 7.2 5.3 5.6-2.2 4.8 2.4 1.4 4.3.3 2.8-1.6 5 2.7 7.1 3.9.7-1.5.1-2-1.8-1.5 2.1-1.3 6.2-.3 7.7-2.4 1.7-2.3 6.4-3.7 8.8-1.7l-1.5-.6c.1 4.9 7.8-1.7 8.8-3.2-.3.8-.8 1.5-1.5 2.2 3.2 1.6 2-3.7 1.7-5.1-.4-2.2.3-7.4 2.3-8.9 3.4-2.5 4 3.1 6.8 3.3 1.9.2 3.5-6.5 2.5-7.3-.5.1-.9.2-1.4.4-1.5-1.2-2-2.4-2.3-4.2-.4-3 8.1-3.1 10-2.9 1.7.2 4.8 1.5 5.3-.4.6-2.5 6.4-1.6 8-1.4-.7-2.4-7.2-2-5.1-4.6-5.6 1.1-11.1 2.4-16.6 3.5-3.6.8-4.5-1.3-7.6-2.9-.8-.4-1.1-8.7-1.6-10.3-.9-3.6 5.3-7.1 7.5-9.2 1.5-1.4 2.3-3 3.6-4.5 1.2-1.5 2.3-.5 3.3-1.5 3.6-3.4-7.2-5.7-8.8-5.4-1.5.3-2.6 1.6-3.5 2.6-2.6 3-.5 3.4-1.1 6.4-.5 2.5-4.9 4.5-6.8 5.8-4.6 3-13.2 13.3-5.2 17.2 4.8 2.3 3.5 3.9.2 6.8-4.3 3.8-3.8 6.3-4.9 11.6-1.1 5.5-6.6 3.4-7.8 7.8-1 3.5-6.3-.3-4.9-4.1.7-1.8-1.3-3.7-2.3-4.8-1.6-1.8-1.5-3.7-2.6-5.7-1-1.8-.4-2.4-.6-4.1-.1-.8-1.8-2.7-2.1-3.8-.9 3.3-5.7 8-9 8.9-6.8 1.9-7.5-3.3-8.4-8.2-.7-3.7-2.9-10.7.1-13.9 3.7-4 9.8-4.8 13.4-8.8 9-10.2 16.1-21.4 25.2-31.7 4.5-5.1 10.2-7.3 16.5-9.5 2.8-.9 5.4-1.2 7.2-3.7 2-2.8 4.6-3.9 8.1-3.5-2 2.2-3.5 4.2-4.2 7.1 2.5-.5 3.9-3.9 5.3-5.7.2 1.1.4 2.2.6 3.2 2.5-3.2 2.5-4.1 6.4-3.8l-1.8 3c1.5 1.2 1.6-.3 2-1.4.6-1.8 4.6.8 5.5 1.1 7.1 2.8-3.2 3.2-5.4 3 1.5 2.7 4 2.3 6.4 2.5 3.8.3 5.1-1.1 8.6.7-.5 1.8-2.3.6-3.3.3-.6 3.8 8.7 2.1 10.9 2.8 3.2 1 6 3.1 9 4.6 2.9 1.4 6.3 2 8.9 4.1 4.9 4.1 1.4 10-3.8 11.3-6.9 1.7-17.2-3.1-23.3-6.1 2 2 6.7 4.4 6.7 7.6 0 5.9.2 7.9 5.4 10.9 1.1.6 5.8 3 6.1.1.2-2.2-2.9-2.1-3.9-3.5-3.8-5.2 10.8.1 12 .6-1.1-3.1-3.1-4.8 0-6.8 5.7-3.8 6.8-4.9 13.5-2.9.7-3.1 1.2-4.4-1-7-.7-.8.7-4.5.9-5.6.3-1-1.8-2.4-2.4-3.1 5.8.8 7.7.7 11.1 5.3-12.6 1.3 1.5 8.4 2.8 4.9 1.5-3.8 2.2-3.6 6.1-5.4 4.7-2.1 9.4-4.2 14-6.4 1.1 3.5 3.8 5.1 6.5 2 1.6-1.9 3.6-.5 5.8-.8 3.2-.5 4.6-1.9 7.9-1.1-1.8 3.2 1 3.7 2.6 1.8 2.4-2.9 1.9-3.6-.2-6.4 9.8-4.3 21.9 3 29.4 8.6.8-6.2-1-6.4-6.1-10.2-1.6-1.2 1-4.4 1.5-5.5.6-1.4-3-2.6-3.8-3.1 2.1-1.7 5.8-3.6 7.1-6.1.8-1.5.9-5.7 2.3-6.6 3.2-2 9.3.5 12.8.9-.8 2.1-3.3 6.4-2.6 8.6.5 1.7 2.2 3.2 2.4 5 .3 3.7-1.5 7.2-1.4 10.9.1 1.9 2 2 3.3 3.1 1.6 1.3-.1 4.2-.6 5.7-2.1 5.7-8.6 6.8-13.7 6.2 3.3 2.7 7.6 5 11.7 2.4 2.1-1.3 8.5-6.1 7.8-9.1-.6-2.5-2.9-4.9.8-6.1 5.1-1.5 5.3-.3 8.9 3.8-.7-4.7-2.4-7.4-7.5-6.4-3.1.6-9.2 1.1-6.5-4.8.7-1.6 2.9-3.9 1.7-5.8-1-1.5-2.7-2.8-3-4.6-.8-4.9 8.4-2.4 5.3-9.5 1.5-.4 3.4 2.9 2.7 4.1-1.3 2.6-1.1 3.4.3 5.9 1.5 2.8 8.9 2 11.6 2.2-4.5-1.6-14.6-4.3-5.9-7.9 7.1-2.9 11.6 4 18.1 3-1.7-4.6-1.7-4.4-6.3-5.2-1.8-.3-1.7-6.5-1.9-7.8 5.4-.6 10.8-1.1 16.3-1.7 5.9-.6 6.1-.3 6.3-5.9.3-6.9 15-8.3 19.8-8.9 4.9-.7 9.8-1.6 14.6-2.6 2.8-.6 11.6-1.4 13-4.3 2.2-4.2 4.1-4.9 8.6-7.3 3-1.5 7.9-1.4 10 1.6-2.2.7-4.5 1.4-6.7 2 3.5.5 7 1 10.6 1.5-1.4 1.3-2.9 2.5-4.3 3.8 1.9.1 3.9.3 5.8.4.1-5.2 2.5-3.4 7.3-3.5 4.9-.1 10.4 3.9 13.1 7.8 3.1 4.6-25.7 19.4-29.6 21.7 6.6-1.8 13.1-3.7 19.7-5.6-1.7-.3-3.4-.5-5.1-.8 5.5-4.7 7.5.6 12.8.7 6.9.1 13.4.3 20.3 1-1.1.6-2.1 1.3-3.2 1.9 5 2.4 7.6 1.9 13.1 2.2 1 0 4 .5 4.2-1.1.2-1.4 0-3.2 1.7-3.4 2.6-.2 5.3.3 7.9-.2 1.9-.4 4.4-1.9 6.3-1.2 4.6 1.5 4.7 6.7 4 10.3-.7 3.4-.3 6.8 2.7 8.6 6 3.4 5.8.7 9.4-4 1.2-1.6 3.3.6 4.4 1.4 2 1.3 3.8.6 5.9-.2 2.8-1.1 4 0 6.3 1.3 3 1.7 6.2-.7 9-1.9-2-3.5-2.4-5.4 1-8.4 2.6-2.3 16.6 2 19.8 3 5.7 1.7 11.6 1.4 15.6 6.2 4.7 5.7 7.5 4 14.6 2.8 4.7-.8 15.4-.5 16.1 5.7.1 1.1-.1 2.2-.5 3.2 1.6.6 3.2 1.1 4.8 1.6 3.8.9 7.4-.5 11.2-.4 2.6 0 5.1 1.1 7.7 1.1 3.6 0 2.9-2.7 6 .9 1.4 1.6 2.7 3.8 5.1 3.5 5.2-.5 2.8-4.5 2.2-8.7 6.3.5 13.5.1 19.7 1.8 5.4 1.4 10.6 5 15.5 7.5 3.6 1.9 10 3.9 12.4 7.4 2.1 3 1.3 7.5 5.8 7.5-.4-1.5-.8-3-1.3-4.4 7 0 10.2 2.2 15.4 6.5-2 2.9-2.5 3.3-7.4 2.5M758 261.5c-.8-.7-1.3-4.7-3.3-2.7-1.1 1-1.2 3-1.2 4.3-.9-1.5-1.7-3.1-1.3-4.9.9-4-1.7-1.3-3.9-4-1-1.2-.6-3.5-.8-4.9 0-.5-2.5-.8-2.6-1.7-.1-.5 3.7.4 4.3 0-4.9-4.6 5.6-4 8.2-2.8-1.4.6-2.5 2.1-2.4 3.6 1.1-1.5 1.8-2.9 3.8-3.1-.9-2.9-2.4-1.3-4.6-2 .1-.2.3-9.4-1.9-6.8-1.1 1.4-3-.2-4.1-.6-1.4-.5-3.6 1.6-5.2 1.6-2.1 0-2.6 3.2-5.2 4.1-3.2 1-3.5 4-5.7 6.4 4.5.3 3.7 7.1 5.1 10.3 1.1 2.5 5.4 7 7.9 8.3-3.3 1-3.1 3.5-4.4 6.6-1.7 4.5 1 7.1 5 8.3 3.4 1.1 12 3.6 11.4-1.9-.3-2.2.3-4.2.2-6.3-.1-1.3-1.9-1.9-2.5-2.9 2.6.8 1-2.3-.3-2.3-2.2.1-1.7-3.9-.4-3.6 3.3.7 8.2 1 3.9-3M181.4 58.8c1.5.3 3.3 1.2 4.7.1-1.3-1.1-3.3-1.7-4.7-.1m124.7 298.9c3.1 2.2 4.3.5 7.1 1.5-1.1-1.8-5.4-4-7.1-1.5m-12-115.2c-.6.3-.6.5-.1.7.6-.5.8-1.1.6-1.8-.4.6-3.9-1.1-5.4 0 1.4.3 3.5 2 4.9 1.1m-6.8-2.7c-.4-.4-.7-.4-1 0 .5 1 .8 1 1 0m1.6 1.6c-.2-1.2-1-1.1-1.7-.4.6.2 1.2.3 1.7.4m93.9-24.6c.5-1 .9-2 1.4-3-5-2-10.4 11.6-13.3 14.6-5.9 6.1 11.4 5.3 13.3 6.3-1.2.4-1.7 1.1-1.7 2.3 2.4-.5 3.9-2.6 6.4-2.8-.3 1.5 1 4.9 3.2 3.2 2.4-1.9.8-5.7.3-8.1-.4-.7-.9-1.3-1.7-1.6-1-.7 0-1.9-.7-2.9-1.8-2.5-4.5-1.1-7.1-.4-.4-3.7-4-4-.1-7.6m-38.6 141.7c.8 2.1 4.2.4 5-.8-.9-1.2-6.1-2-5 .8m-28.3-7.1l4.2-1.2c-4.8-3.9-10.3-5.6-15.3-8.4-3.5-1.9-7.5-3.5-11.6-3.1-5.1.5-5.9 2.5-9.6 4.8 3.8 2 7.4-6.2 11-2.5-.5.4-1.1.5-1.8.4 2.1 2.7 9 1.3 11.8 3.7 3.2 2.7 6.6 3 3.4 6.3 2.7.5 5.3-.2 7.9 0m38.7-115.5c-2.4 4.5 5 5.3 7.4 2.7-3.4-.2-6 .7-7.4-2.7m-1.3-13.5c2.1 1.7 6.7 6 9.7 3.6-2.4-2.7-6.2-3.7-9.7-3.6m99.9 230.3c1.4 6.2-2.4 9.5-5.9 14.6-2.2 3.2-4.6 6.3-6.7 9.5-2.1 3.2-1.5 8-1.8 11.6-.7 9.1-1.2 14.3-6.7 21.6-1.1 1.5-2.4 5.4-4.6 5.5-2.1.1-5.1-.8-7 .5-5.4 3.7-13.2 6.4-13.6 13.4-.1 2.2 0 4.6-.4 6.8-.6 3.5-5.4 7.7-7.6 10.5-2.1 2.6-11.2 17.6-14.3 17.1-4-.7-7.6-2.8-11.4-4-.7 2.5 2.4 3.6 4 4.8 1.8 1.4 3.1 5.7 2.7 7.9-1.6 7.9-13.4 9.7-19.7 8.5 2.3 7.6-1.6 12.2-9.1 8.5 0 1.9-.5 3.9-.1 5.8.3 1.3 2.5 3.1 1.8 4.6-1.8 3.9-2.5 8.5-7 9.6-4.1 1-3.8 5.4-1.7 7.8 2.4 2.8 6 1.6 2.9 6.4-1.6 2.5-4 6.9-6 8.9-3.4 3.2-4.1 3.5-2.9 8.6.9 3.7.8 7.3 3.8 9.9 4.5 3.9 7 5.2 12.9 5.4-5.8 2.6-11.3 7.1-17.4 4.1-7-3.3-13.4-4.9-16.5-12.2-3-7.2-6.2-12.4-5.3-20.5 1.1-9.4 2.2-18.8 3.2-28.3 1.7-17 4.5-33.6 7.7-50.4 2.8-15 8.2-31.1 6.3-46.3-.8-6.4-.9-7-6.2-10.8-5.4-3.7-9.9-6.5-13.1-12.4-3.7-7-7.4-13.9-11.2-20.9-4-7.5-8.7-12.9-5.8-21.4 2.1-6.4 2.9-10.2 7.2-15.7 1.8-2.3 4-4.6 5.1-7.4 1-2.9-.3-5.2-.1-7.9.1-.9.1-2.9.3-3.8.5-2.3-3.9-3.1-3.3-5.4 1.3-5-8.8-3.9-5.6 1.8-2.4 1-2.7 1-3.7-1.4-.8 2.3-12.7-5.2-13.7-6.2-2.4-2.1-2.3-5.8-4.4-8.4-2.7-3.3-5.2-5.8-9.5-6.7-3-.6-6.2-.9-8.8-2.5-2.9-1.7-6.6-8.8-10.1-8.6-4 .2-5.9 2.3-10.1.7-4.5-1.7-8.9-3.9-13.4-5.7-4.5-1.8-15.3-6.8-13-13 2-5.6-6.1-12.2-9.8-15.7-1.1-1-2.3-2.1-3.4-3.1-.9-.9.7-2.6-.3-3.8-2.7-3.4-6.3-5.8-9-9-1.5-1.7-1.5-4.5-2.1-6.6-1-3.7-4.2-4.2-7.5-5.7.8 2.8.7 6.5 2.7 8.8 2.1 2.6 4.3 5.1 5.6 8.2 1.2 3 3.6 4.7 4.8 7.8.6 1.6.7 4.5 1.6 5.8.4.6 1.2-.3 1.7.1.8.6 4.2 5.8.8 5.1-1.7-.4-5.8-5.7-7.5-6.9-1.5-1.1.3-4.3-1.1-5.8-2.4-2.6-6.1-3.8-8.7-6.2 3.6-.4 3.8-1.8 1.8-4.7-2.4-3.4-4.7-4.1-6.3-8.2-1.5-3.7-2.5-8.6-5.3-11.5-2.6-2.7-7.7-2.7-9.8-5.2-3-3.6-3.7-8.8-6.5-12.6-3.2-4.1-5-7.9-5.5-13.2-1.1-11.9 2.3-23.1-1.6-34.8 2.7.6 5.3 1.4 7.8 2.4.2-6.8-5.9-12-12.2-13.7-6.6-1.8-7.2-6.6-11.7-10.9-4.6-4.2-1.9-9.3-7-12.5-.4-.2-2.2 2.8-3.3 2.6-2.4-.4-2.9-6.2-5.3-7.4-2.7-1.3-4.1-3.3-5.6-5.9-2.6-4.4-5.2-6.5-9.3-9.3-3.3-2.3-6.9-4-10.7-5.5-4.2-1.6-7.9.6-11.7-2.1-2.3-1.6-14.2-8-11.8.1.9 3.1-9.6 5.5-11.6 6.1-.4-1.2 0-1.9 1.2-2.3-1.8-.6-.5-4.5.1-5.5 1.2-2.1 5.1-2.1 7.2-2-2.7-1.3-2.6-2.4.3-3.4-8.2 1.6-12.9 6.7-16.8 13.7 1 .3 2.1.5 3.1.8-5.4 7.3-14.4 9.9-19.4 16.5-1.9 2.6-6.8 3.1-9.6 3.8-3.5.9-7.6 4.2-11.2 3.3 1.5-1.4 13.1-9.7 14.6-7.1 1-1.8 4.8-6.6 7.3-4.9-1-2.7 7.8-9.1 5.9-11.9-2.4 1.3-5.6 4-8.5 1.9-3.6-2.6-4.1-2.3-8.2-.4l-1.5-8.7c-4.2 2.4-4.9 3.5-9-.2-3.4-3.1-2.8-9.1-.7-12.6 2.3-4 4.7-2.3 8-5 3-2.5 9.6-1 4.4-6.8 3.7-2.1.5-2.8-1.5-1.4-2.4 1.7-3.2.6-5.6.9-2.2.3-4.6.7-6.9.2-1.3-.3-6.2-3.3-2.4-4-2.1-.7-4.6-1-6-2.9 2.6-1.4 5.1-2.9 8.2-2.9-1.3-1.7 1.1-1.9 2.5-2.3 4-1.1 2.1.4 4.4 1.9 2.5 1.7 12.1.8 6-1.9 2.7-.9-1.5-1.2.8-2.8-4.6-.5-6.4-1-8.9-4.6-1.5-2.1-5.2-2.1-7.2-3.5-1.9-1.3.4-4.4 2.1-4.5 5.3-.4 5.5-1.1 8.9-5.3 5.5-6.9 14.5-5.7 21.1-10.3 1.9-1.3 5.8 1.2 8.2 1.3 4.2.1 5.4.5 8.4 3 4.2 3.4 16.2 2.4 21.3 3.2 10.1 1.6 20.7 2.7 29.9 7.3 3.5 1.7 4.2-.4 6.5-3 2.2-2.5 2.4-.9 5 .2 2.7 1.2 11.8-8.2 14.1-4.5-3.5 1.9-7 3.7-10.6 5.6 2.3 1.6 11.8-5.6 12.5-2.6 1.1-1.2 2.1-2.5 3.2-3.7 1-1.1-1.3-1.3.3-2.5 2.6 3.1 5.4 6.1 8.3 8.9.8-2.4 1.6-4.3 3.5-6 1.2 1.3.8 4.2.1 5.6.9-.2 4.6-.2 4.4-1.7-.3-2.1 2.6-1.7 4-1.3 2.8.8 5.3 2.6 8 3.5 3.9 1.3 8 2 12 3-.9-2.7 7.3 1.4 7.2 2.9 0 1.6-3.7 2.5-4.8 3 5.7 1.8 10.5 1.2 16.4.7 5.9-.4 7.1 3.5 10.1 8.1-.6-2.3-1.6-6.9-.4-9 .8-1.4 7.8-1.8 6.3-4.2-3.1 1.2-6.1 2.5-9.4 2.4.8-3.1 6.2-5.3 9.1-4.2 2.4.9 2.3 4 4.3 4.6 2.7.9 5.7 1.8 8.4 2.4 2.9.7 7.9 1.8 10.7.5 1.1-.5.9-2.9 1.9-3.8 2.2-1.9 6.2.3 8.5.9-1.3 4.5-1.4 4.4 2.6 7.1-.5-1.7-2-4.8.2-6 3.1-1.7 6-2.1 5.3-6.4-1 .5-2 1-3 1.4-.3-2.8 1.7-3.6 4.1-3.8-.1-1.6-7.2-2-8.9-3.1-2.6-1.6-3.4-12.4 1.8-10.3.2-1.3-.4-1.9-1.7-1.7 6-3.9-4-15.2 4.4-15.1-4.8-5.3 13.4-2.1 15.1-1.6-1.6 2.3-2.6 5-4.5 7.1-2.3 2.5-6.4 1.1-9.4 1 6.2.9-1 4.5-.5 7 2.5-.4 4.2 1.3 5.1 3.5 1.3 3.3 3 4.8 5.3 7.6-1.6 1-3.1 2.1-4.7 3.1 3.2 1.2 5.3.1 8.4 1.6-4.3 3-1.1.6-.3 3.4.6 2.2-1.6 3.4.9 5.1.6-.9 2.6-7.9 3.8-7.1 1.3.8 8.1 5.4 3.2 7 .1-2.2-1.9.6-.6 2.8.9 1.5 2.8 3.6 4.8 3.7 2.2.1 4-9.6 7.1-11-4.2-6.5.6-7.4 6.3-5.7 5.3 1.5 8.5 7.6 1.2 8.3 1.3 2.9 6 6.7 3.5 9.8-2.8 3.5-6.2 3.8-9.1 1.1.6 1.4 1.2 2.7 1.8 4.1-.9-.5-1.9-1-2.8-1.5.8 2.9-5.7-4.2-7.5-.2.9.5 1.8 1.1 2.7 1.6-1.4 2.2-3.3 5.8-6.5 4.1-4-2.2-7.4-2.6-12-2.8 5.4 2.7 9.1 4.1 15 4.9-2.2 3.8-2.9 7.2-8 6.9-2.3-.1-3.4 2.5-5.9 2.1-2.7-.5-5.5-1.5-8.2-2.2 1.1.5 5.4 1.2 3.3 2.8 1.8-.4 6.1-.1 6.2 2.6.1 2.5-5.4 1.2-6.3 2.4-5.1 6.9-6.8 13.3-8.5 21.6 4.4 1 6.1.6 7.4 5.4 1.1 4 1.3 4.9 5.3 4 3.6-.8 10.6 3.6 13.6 5.5 4.1 2.6 5.7 4.5 10.8 5.1 4 .4 6.9-.9 6.6 4-.3 6.6.2 9.4 4.7 14.3 2.7 3 5.4 2.6 7.5-1.2 2.4-4.3-1.2-10.7-3.5-14.3 5.5-3.6 13.7-6.8 9.9-15.4-1.2-2.7-5.5-4.3-6-7.3-.2-1.1 2-2.4 2.6-3 1.5-1.4.2-3.6-.3-5.2-1.1-3.4.8-6.3-.3-9.8-1.6-5.1 8.8-1.2 10.4-1.2 1.9 0 3.2-1.5 5.1-.2 1.3.9 2.5 1.7 3.8 2.6 1.7 1.1 1.4 1.9 2.4 3.5 1.2 2 5.3 1.7 7.3 2.7-1 1.6-2.2 9.2.4 8.4-.6.7-3.3 2.6-1.9 3.9 2.1-6.3 10.1 7.4 11.7-1.1 3.1 3.5 2.4-10 6.7-9-.9 3.6 1 2.2 2.9 4.8 1.4 1.9 2.3 4.1 3.3 6.3 1.7 3.6 5.6 6 3.3 10-.8 1.4 4.2 5.2 4.9 6.9.1.2 10.8 2.2 9.2 4.5-.8 1.1-5.5 1.7-6.8 2.1 1.3.1 2.5-.1 3.7-.7-.6 1.1-7.7 2.1-5.5 4.4-.4-.4 7.5-3.7 7.8-3.7-.6-.1-1.2-.3-1.5-.8 4.7-.2 1.9 2.3 3.3 4 1.2-2.3 5.5-1.1 5.1 1.5-.3 1.9.2 5.8-1.4 7-2.6 2-4.8 1.4-7.8 2.4-3.2 1.1-4.3 4.9-7.9 5.6-4.6.8-18.4-3.4-21.3 1.5-1.8 3-3.9 2.5-6.2 5-2.9 3.1-5 7.4-8.3 9.8 5.1-2.5 8.1-7.5 13.4-10 1.9-.9 4-1.8 6.2-2 2.4-.2 5.5 3 3.6 2.1 4.2 2.8-6 3.7-6.1 3.8.7.4 1.3.9 1.8 1.5.9.9 2.2-.1 3.5.3-.3 1.3-.9 2.3-2 3 2.5-.9 5.3 10.2 11.6 5.6.5 2.9 3.1-3.7 4.3-5.6 2 .7.8 2.7.4 4 .9-.7 2.5-.1 2.6 1 .2 1.5-4.5 2.2-5.3 2 2.5 2-4.7 3.5-6.4 4.2-2.9 1.2-3.1.1-5.7 3.4-1.7 2.2-5.9 2.1-4.4-1.6.4-1 4.5-5.4 5.9-4.9 1.9.7 1 1.8 3.4-.3-1.5-.4-2.9-.3-4.3.3.2-.8.6-1.6 1.1-2.2-2.4-.6-6.3 3.3-9.2 3.3.8 2.6-5.1 3.9-6.1 2.9-.8 1.6-1.8 2-3.4 2.6-1.5.6-1.9 3.1-2.5 4.4-.5 1.1-1 2.4-.9 3.7.1 1.3 2.8 2.7 1.9.8 2.5 1.8-3.3.4-4.1 2.2-.4.9-6.8 1.9-8.2 2.9 1.9-.2 3.6-1.2 5.5-1.5-1.1.7-.8.8 1 .6-1.6.9-7.1 1-7.9 2.4 3.1.3-1.5 6.2-2.4 7 .7-1.3-1.6-2.5-1.9-3.5.1 1.8 2.5 3.9 1.5 5.8-.8 1.6-2.2 4.1-3 5.2 0-.8 2.1-5.9-.9-5 .3-1.6 1.3-3.6 1.3-5.2 0-.6-2.1 1.6-2.2 2-.3 1.3.3 2.9.6 4.1-.7-.6-1.6-1-2.5-1.3.9.7 1.8 1.4 2.7 2.2.6 1.1-.7 2.4-.3 3.5.7 2.6 3 3.3-1.2 4.7 4.4 0 3.2 1.8-.3 2.4 1.7 1 .8 1.4-.5 1.4.6 1.5 1.6.2 2.6.8-1.4.7-4.1.6-4.8 1.7-1.7 2.4-3.6 3.1-5.4 5.4-3.5 4.5-9.2 6-7.3 13.2 1 3.9 7.8 14.4 3.7 18.4-3.6 3.7-8.5-6.1-7.7-9.3-1.8 1.5-.3-3.3-.6-4.5-.4-1.6-4-4.9-5.8-4.3-3.6 1.2-3.5-.7-6.7-1.6-1.8-.5-5 1.9-5.6-1.2-.4 3-6.6.8-8.3 2.2 1.3.1 5.7.8 2.5 2.4.6.3 4.2 3.1 1.1 2.5.5-1.4-1.6-1.9-2.3-2.3 0 .6 0 1.3-.2 1.9-.8-1.6-9.4-3.7-11.3-3.3-4.4.9-9.5 4.5-12.2 7.9-1.1 1.4-2.5 3.5-1.4 5.3 1.7 2.9.8 4.4-.2 7.6-2 6.3-.6 13.5 3 19 3.1 4.7 5.9 7.8 11.4 5.8 4.6-1.7 7.2 1.3 9-4.8 1.7-5.7 3.4-7.2 9.6-7.3 5.4-.1 3.2 7.1.3 7.3 1.1.6 1.9.5.1 1.7.2.4.4.4.8-.1-.5 1.4-.9 2.9-1.2 4.5-.7-.7-.9-1.6-.7-2.6-2.2 2.5.7 7.7-3 11.1 5.1 1.8 10.9-1.5 15.7.6 7.6 3.3 1.1 10.6 1.6 16.1.4 4.1 4.2 10.5 8.9 10.4 2.4-.1 4.2-2 6.7-2 3.7 0 6 2.7 8.2 5.2-.2-5 5.2-11.8 9.8-13 3.1-.8 6.7-3.3 9.9-3.1 3.9.2 8.2 2.1 11.9 3 7.7 1.8 17.2 2.2 23.1 7.9 6.5 6.3 11.4 12.8 20.8 14.2 7.3 1.1 9.3 6.7 13.5 12.1 2.2 2.9 4.3 6 6.5 8.8 2.1 2.7 9.3 3.9 12.5 5 7.4 2.7 15.9 4.5 22.1 9.6 2.5 2 4.3 4.4 7.5 4.6 3.9-.6 3.2 2.2 4.1 5.9M303.5 254.1c0 1.7-4.1 2.3-5.2 2.5-2 .3-6.9 3.4-8.1 2.8.3-1 1-1.7 2-2-.4-.3-.8-.7-.9-1.3-1.1 1.4-2.1 2.9-2.9 4.4 3.4.9.7 1.9 3.8 1.3 1.8-.4 3.3-1.5 5.1-2.1 1.3-.5 8.9-3.6 6.2-5.6m4.1-1c1.4 1.3 3.7.4 4.8-.8 2.4-2.4-1.5-1 2.3-4.3-1.3.5-4.1 3.2-5.7 2.5-2.2-1-6 .1-7.1 2-1.5 2.5 4.6-.5 5.7.6m-48.4-16c1.5.4 2.9.2 4.2-.7-1.3 3.1 9-3.3 10.4-2.2-1.3.5-2.2 1.5-2.6 2.8 2.7-1.5 3.7 2.1 6.4 1.6 1.9-.3 3.7-1.2 5.6-1.6-.2.7 2.9 3.1 3.6 3.8-.7-.2-1.5-.3-2.2-.3-1.6.5-1.2-.3-3.3-.2-1.3.1-5 3.3-3.5 1.1-1.1 1.2-1.6 1.1-1.5-.2-1.5 1.5-3.1 3.9-3.5 6 1.5.3 2.2-2.4 3.2-3.1.6 3.8-6.5 13.4-.6 16.6 2.8 1.5 3.4-6.8 3.2-8-.3-1.7-.9-3.5.1-5.1.7-1.1 3-5.2 2.3-1.1 1.2-1.3 1.6-3.1 2-4.1.7-1.8 5.8 1.9 6 2.9-1.2-.1.2 1.5-.1 2.6-.2 1-2.5 2.2-2.2 3.3.3 1 3-1.3 3.5-1.3 1.6.1 1.5 3.8 1.7 4.8 1.5-1.7 5.9-8.7 2.5-10.3 2-1 2.1 2.2 2.3 2.5 1.3 1.4 3.8-.7 4.6-.3-1.8-1.6-1.5-5-4.2-5.6-3.2-.7-6.4-.7-9.5-1.7-2.8-.9-2-1.3-3.3-3.1-.3-.4-1-4.1-.8-4.7-3.1.5-3.6-1.3-5.1-3.5-.3-.4-5.9-1.4-6.5-1.4.7.6-.7 5.1-.3.7-.6.8-1.2 1.6-1.9 2.3 1.9-3.3-1.7 1.3-1.8 1.3-3.6 1.8-5.8 3.4-8.7 6.2m-86.9-105.9c-1.7-.1-1.8-.6-.3-1.5-3.4-.4-5.1 3.4-9.3 1.6.6-1.8 3-2.2 4.5-2.8-4.5-1.6-7.5.2-11.8 1.7-2.4.8-6.9.8-8.9 2.4-2.8 2.2 3.7 0 2.7.2 3.5-.5 7.1-1.5 10.4.7-1 1.7-3.7.2-5.2.6.7.4 1.3 1 1.8 1.7-3.6 1-.8 2.5-4.2 3.1 1.5 1.2 4.9 1.5 6.2 0 .3-.3 4.8-4.1 4.5-1.5-.2 1.7-2.9 2.4-3.9 3.2 2.2 2 4.4-3.5 6.9-2.7-.3-.9-1-1.5-1.9-1.7 1.9-1.9 6.5 1.1 7.5-1.4-2.6 1 .6-2.6 1-3.6m29.3 22c-2.4-1-5.9-1.7-8.1.1-2 1.7-2.4 3.9-5.4 4.3-2 .2-9.8-5.1-10.9-4.1.8-.7 3.9 4.2 4.3 4.7 1 1.2-5.6 1.9-3.7 3.7-1.5 1.3-4.2-.1-6 .1 1.9 2.6 11.2 4.5 13.3 1.2 1.4-2.3 4.2-1.9 6.3-4 3.8-3.8-2 .2 2.2-2.8 1.4-1 3.5-.4 4.7-1.7-.6.3-1.2.3-1.9 0 6.5-1.7-3-1.8 2.1-1-2.3-.8-4.5 1-6.3 2.1.7-2.4 7.7-4.6 8.1-1.2.5-.5.9-.9 1.3-1.4m38 59.1c.2-1.2.1-.8.9-1.2-.2 1.6 1.2.3.8 3.4.3-.8.8-1.1 1.6-.9 1.2.6-2.7 3.8.7 1.6-.9.6-1.9 5.2-.5 4.7 1.3-.4-.2-2.4 1.6-1.3-.5-1 .5-2.8-.4-3.6-1.3-1.1-1.6-3.1-2.2-4.6-.5-1.3-4.1-8.2-2.3-9.3-.4.1-1.1.4-1.7.5.2-.8.7-1.3 1.4-1.6-.2-.2-.5-.4-.8-.6-.9 1.6-1.1 2.5.5 3.7-4-1.8-6.3 2.4-2 3.5-2.8.6 1.3 5.1 2.4 5.7M7.9 167.6c-2-.9-3.8.7-5.9.5 1.7 2.7 3.9 2 6.3 1.7-.1-.8-.8-1.3-.4-2.2m137.9-73.3c2.7 1.4 4.6 2.7 6.6 5 1.8 2 4-.2 5.8-1.3-.1.1 3-.4 3.9-.8.7-.8.7-3.6.9-4.6 2.8 1.8 2.9-2.3 4.4-3.2 2.8-1.7 6.4-2.1 9.3-3.6 7.1-3.9-6.4-10.5-10.2-6.3 1.9-4.2-16.5-2.5-18.7-2.2.8 1.5 2 2.8 2.6 4.4.5 1.7-4.7 3.7-2.2 5.8-1.5.1-4.4 5.6-4 7.1.5-.1 1.1-.2 1.6-.3m13.3-28.4c.6.1 4.1-4.4 3.4.5 1.1-.2 2.1-.6 2.9-1.2.8-.9-1.3-2.3 0-2.9.6-.3 1.2 1.2 1.8 1.3 1.4.2 1.6-2.1.2-2.5.9-.6 3.3-2.9 4.2-2-3.1 2 .9 4.5 3.1 3.2 1.3-.7 4.3-3.1 1.8-4.4.6-.3 1.2-.4 1.8-.4-3.4-.6-.3-2.4 1.2-2.9-2-1.1-3.4-2.2-5.7-1.3.3.3.7.6 1.1.8-1 1-4.8-.1-6.4.1-2.6.4-4.6 2.3-6.3 4.1-2.9 2.9-12.8 6.2-3.1 7.6m26.6-15.4c-1.9-1.7-2.6-2.1-5.1-1.2 2.3 1.7 2.3 2.4 5.1 1.2M50.5 180c1.1.8 3.9-1 4.2-1.4-1.9-.8-3.5-1.3-4.2 1.4m73.3 22c.1-1.3-5.7-2.9-4.3 1.1.4 1.1 4.7 9.9 6.6 7.5-2.4-2.2-2.7-5.4-2.3-8.6m-75.7-19.4c-2.6-1.6-3.4 3.1-1.3 4.2 1.6.8 7-3.3 7.4-4.3-.5-.2-6.6-4.3-6.1.1m102.7 43.5c-.8-1.3-2.7-.7-3.6-2-.8-1.2-1.2-2.8-2.5-3.7-2.1-1.4-7.3-3.2-9.7-2.4 2.9 3.6 6.4 6.5 10.3 8.8 2.8 1.7 8.9 5.1 5.5-.7m592.9 250.4c-2.4-3.4-3.2-4.1-4.1.3-.8 3.9-6.5 8.6-9.9 10.1-4.6 2-7.7 3.1-5.9 9 .8 2.4 1.9 5.1.6 7.6-1.3 2.6-3.4 4.4-3.5 7.6-.1 3 1 12 3.9 13.3 1.5.7 7.9 1.3 8.6-1 3.4-11.8 10.1-25.2 9.1-37.7 4.4 4.4 1.8-7 1.2-9.2-.9-1.2 0 0 0 0zM982.3 365c-1.7 3.2.8 6.1 3.4 7.1-3.9 2 4.7 3.9 5.6 5.3.9-5.6 2.9.4 5.5 2.1.9-2.1-1.3-2-1.2-3.9.9.6 1.5.5 2-.3.1-1.4-2.8-1.1-4-1.8-3.4-2.1-1.4.6-3.6.4-1.4-.1-2.1-3.4-2.2-4.5-.2-2.7 2.3-2.4 2.7-4.1.4-1.8.8-7.1 0-8.7-2.2 1.1-2.9-1.3-5.1-.3-3.3 1.5-.7 7.7-1.4 10-.6-.3-1.1-.8-1.7-1.3m6-29.1c.3-1.5 2.2-6.8-1.3-5.1-5.7 2.7-4.2 8.4-1.6 12.4 1.3-2.3 2.4-4.7 2.9-7.3m-7.8 47.8c-1.1 5.2-5 7.6-7.4 12.1 3.1-2 11.6-8.3 7.4-12.1m22.7 8.6c-.3-1.1-1-1.8-2-2.1.2 1 .3 2 .5 3-1.3-.2-3 .2-2.8 1.9-1.5-1.1-2.5 1.5-3.6 2 1.7-2-1.4-4.1-2.2-1.1-.6 2-5.7 2.1-3.4 5.5.7-.6 2.3-5.3 2.8-2 .2-.5.5-.9.9-1.2-.1.7.2 1.1.9 1.3-.8-2.2 1.4-2.2 1.9-.9.4 1-.1 2.2-.2 3.2-.1 2.4 2.8 3.9 4.4 2.6-.4 1.4.6 2.2 1.2.8 1-2.1-1.8-3.8.7-5.6.5 1.3.9 2.7 1.2 4 .1-1 3.2-8.3-.1-8.7.5-.7 1.6-3.5-.2-2.7m-18.3 72c-.6-1.4-5.8-3.5-5.6-.7.8.3 7 4 5.6.7m-11.1-4.9c-1.8-2.6-4.5-1.2-5.4.9 1.5.5 10.7 1.9 11.1-.8.5-3.9-6.2 0-5.7-.1m14.5 1.5c1.5-.2 3.2-1.9 4.7-1.9 2.3-.1 5.5 1.2 7.5-.6-5.2-2-10.2 1.3-15.5 0-1.7-.4-4.3 1.4-1.6 2 1.6.3 3.3.7 4.9.5m2.1-13.7c.7.6 1.3 1.2 2 1.8.6-.9.5-4.3 1.6-4-.6-1.9-1.8-.9-1.7.5-.8-2.3-1.8 1-1.9 1.7m-45.5-22.4c-.3 2.1 2 4.8 1.6 7 .7 0 1.1-.4 1.2-1.1 2 1.8.4 7 2.2 8 3.5 1.9 4-3.9 5 1.8 3.5-2 8.4-1.9 9.5 2.3l4.8-2.4c-.5 1.1-.3 1.7.8 1.9.1-5.5-.2-7.5 3.5-11.4 1.4-1.5.3-3.5.9-5.3 1-3.3 2.7-.4 4.3-1.9.8-.8-1.9-2.6-2.3-2.9-1.6-1.3-.4-2.7-1.4-4.5-2.1-4-.9-5 2.9-5.8-2.3-3.1-.7-2.3 2.1-3-.4-1.1-5.8-5.5-7.2-6.3-2.7-1.6-5.3 5.3-6.2 7-.6 1.1-2.7 1-3.7 1.6-1.8 1.1-2.3 3.5-3.7 5-1.8 1.9-10.2 3.3-6 7.5-1.8-.5-5.3-.3-5.7-2.8-2.7 1.6-2.2 2.2-2.6 5.3m53.5 40.1c2-2.8 8-3.1 8.9-6.4-3.3.3-5.3 1.1-7.8 2.2-1.5.5-2.8 1.3-4.1 2.2-1.2 1.1.5 2-.8 3.2 1.3-.1 2.9 0 3.8-1.2M325 358.2c2.8.4 2-.3 3.5 1.9 1.2 1.8 1.8-2.3 2.2-2.6 1.8-1.3 7.8 1.4 9.1-.8.2-.4-5.4-4.6-5.5-4.6-3.6.4-8-1.7-11.7.1 2.1 1 2.6 2.5 3.8 4.3-1.8 1.4-5.5-1.4-7 .1-1.5 1.7 5.4 1.5 5.6 1.6m196-213.8c1.2.3 2.1-.1 2.7-1.2 1.5-3.2.6-.2 2.7-2.5 1.8-1.9-.4-6.5-3.7-5.3 2.1-3.5-6.9-6.2-5.6-2.7-2.1-.2-3.9.9-6-.1.1 1 .3 1.9.4 2.9-1.2-1.8-6-4.4-4.5 0-.8-.9-1.7-2.7-3.3-2.4.8 1.8-1.6 3.8-2.4 5.7-.7-1.1-1.4-2.1-2-3.3 3.2.8-.1-2.3-.5-2.6-1.6-1.3-2.3-2.1-4.4-2.1 0 0 4.5 3.8.9 2.4-4-1.5-1.4.9-1.9 2-.7.5-1.5.4-2.1-.2-.1 1.5-.4 1-1.6 1.6 2.8 1.2 6.3-.2 9.5.5-.9.4-1.8.9-2.8 1.4.8.5 1.7.6 2.6.2.1 1.2-6.2 1.8-7.7 1.7.4 2.2 4.9 1 6.2 1-.8.9.9 2.3 1.4 2.4-.5 1.6-3.9 1.5-3.1 3.5 1.6-.2 6.2-1.7 7.2-.1 1.1 1.7 4.1 2 6 2 2.3-.1 3.3-1.8 5.5-2.1 2.1 0 4.5-3.3 6.5-2.7m-22.3-42.3c-2.3-9.4.8-16.1 7.3-23.3 2.9-3.2 1.6-4.4 1-8.2-.9-5.5-2.6-6.4-7.3-9.6 2.7-2.7 5.5-5.4 8.3-8.1-5.6-3.8-8-6.8-3.6-12.8 2.2-3 4.4-4.3 7.4-6.4 1.2-.8 2.3-1.7 3.4-2.6 2.6-2.3 3.9-2.4.9-4.9 6.3-1.3 10.8-3.7 16.4-6.9-4.1-1.6-14.9-7.8-19-2.8-3 3.8-4.9 2.7-9.4 2-3-.5-6.4 2.6-9 3.7 1-1.8 2.2-3.6 2.6-5.6.6-3.1-6.4-1.6-8.4-3.2 3.6-1.3 7.2-2.6 10.7-3.9-16-7-31.9-10.4-49.5-8.8-2.1.2-6.5-.4-8.4.8-3.3 1.9-.9 4.2-5.8 3.3-3.7-.7-7.9-2.2-11.7-2.1-4.5.2-10.1 4.1-14.2 6 3.7 2.4 8 4.3 10.4 8.3-6.6-2.4-13.3-4.5-20.1-5.9-5.4-1.1-13.6 1.8-19.1 2.5-6.5.9-10.7 1.6-16.6 4.6-7.5 3.9-15 7.7-22.5 11.6 2.4 2.6 5.8 2.3 9 2.7-.6 1.6-1.6 6.7-3.4 7.4-2.5 1-6 .6-8.7 1.3-3.1.8-18.7 2.9-14.9 8.7 1.5 2.2 3.1 4.8 4.8 6.8 2.3 2.7 6.3 3.8 9.1 5.8 6.6 4.8 15.6 1 23.5 2.4 2.5.4 8.8.4 10.7 2.1 1.6 1.4 2.4 3.5 3.7 5.2 2.8 3.6 9.1 13.3 8.3 18.1-.4 2.5-3.1 5.5-.9 7.8 2.7 2.9 4.3 3.9 3 8.1-3 9.9 9.2 5.5 13.3 4.2-.5 3.8.1 5.4-3.5 6.7-4.9 2.1-4.8 2-5.7 6.7-1.6 8.2 2.1 16.9 6.3 24 4 6.8 8.2 16.3 15.7 19 3.4 1.3 7.1 3.3 10.7 3.4 4.4.1 4.1-4 5.2-7.6 1.3-4.1 2.6-8.3 4-12.4 1.2-3.6 2.2-10 4.8-12.9 2-2.2 8-2.9 10.8-3.8 4.8-1.6 7-2.3 10-6.6 4.8-7 13.8-6.5 21.4-8.8 5.9-2.1 20.7-8.9 19-16m449.1 255c4.2-1.9 5.9-8.8-.2-6.1-4.9 2.1-4.2 7.9.2 6.1M934 449.3c.6-3-.2-6.2.8-9.1 1-2.8-2.6-5.3-4.6-2.8 1.3-1.3-.2-2.4-.3-4-.3-2.6-3.2-2-3.4-3.7-.4-2.4 1.9-2.9-1-4.5 0 0-2.9-3.2-2.9-3.3-.3-1.4-3.1-.7-4.1-2-2.1-2.8-6.1-4.8-8.7-7.1-2.1-1.9-2.5-5-5.6-5.3-1-.1-5.2-2.1-5.9-1.2-1.7 2.4 4.8 6.8 6.2 7.7 2 1.3 1.2 3.7 3 4.9 2.3 1.5 2.7 2.2 3.4 5 .9 3.2 2.1 2.5 3.5 5 1.2 2.1 1.7 4.4 2.7 6.6 2.4 5.3 8.7 10.3 12.9 14.2-.1-2.3 3.1-2.2 4-.4m7.5-12.7c-1.6-1.2-1.2 1.5-1.1 2.2.3 1.9 3.7-.2 1.1-2.2m19.5 19.5c-1.9.4-4-1.1-3.5-3.2-1.9.9-5.5-1.8-6.2-1.4-2.3 1.3-2.3 2.1-5.9 1.3-3.2-.7-7.9-6.1-11.1-2.3-2.7 3.1 2.7 1.8 2.3 4.1 2.1.4 4 1.6 6.1 2 1.9.4 3-.8 4.9 0 5.7 2.4 11 1 16.7 3.5-1.5-1.6.1-4.8-3.3-4m-29-21.3c.8.7 4.4 4.1 5.5 4.1-.6-.7-.5-1.4.3-2-1.2 0-4.1-5.7-3.6-3.1-1.1-1.5-1.7.3-2.2 1" id="Layer_1"/><g id="Layer_2"><path class="st1" d="M639.1 220.2c-.2 0-.4-.1-.5-.3l-4.6-9.2c-.3-.7-.5-1.5-.5-2.3 0-3.1 2.5-5.6 5.6-5.6 3.1 0 5.6 2.5 5.6 5.6 0 .8-.2 1.5-.5 2.3l-4.6 9.2c-.1.2-.3.3-.5.3z"/><circle class="st2" cx="639.1" cy="208.4" r="3.1"/><path class="st1" d="M627.3 214.9c-.2 0-.4-.1-.5-.3l-4.6-9.2c-.3-.7-.5-1.5-.5-2.3 0-3.1 2.5-5.6 5.6-5.6 3.1 0 5.6 2.5 5.6 5.6 0 .8-.2 1.5-.5 2.3l-4.6 9.2c-.1.1-.3.3-.5.3z"/><circle class="st2" cx="627.3" cy="203" r="3.1"/><path class="st1" d="M614 215.9c-.2 0-.4-.1-.5-.3l-4.6-9.2c-.3-.7-.5-1.5-.5-2.3 0-3.1 2.5-5.6 5.6-5.6 3.1 0 5.6 2.5 5.6 5.6 0 .8-.2 1.5-.5 2.3l-4.6 9.2c-.1.2-.3.3-.5.3z"/><circle class="st2" cx="614" cy="204.1" r="3.1"/><path class="st1" d="M605 189.3c-.2 0-.4-.1-.5-.3l-4.6-9.2c-.3-.7-.5-1.5-.5-2.3 0-3.1 2.5-5.6 5.6-5.6 3.1 0 5.6 2.5 5.6 5.6 0 .8-.2 1.5-.5 2.3l-4.6 9.2c-.1.2-.3.3-.5.3z"/><circle class="st2" cx="605" cy="177.5" r="3.1"/><path class="st1" d="M626 161c-.2 0-.4-.1-.5-.3l-4.6-9.2c-.3-.7-.5-1.5-.5-2.3 0-3.1 2.5-5.6 5.6-5.6 3.1 0 5.6 2.5 5.6 5.6 0 .8-.2 1.5-.5 2.3l-4.6 9.2c-.1.2-.3.3-.5.3z"/><circle class="st2" cx="626" cy="149.2" r="3.1"/><path class="st1" d="M676 149c-.2 0-.4-.1-.5-.3l-4.6-9.2c-.3-.7-.5-1.5-.5-2.3 0-3.1 2.5-5.6 5.6-5.6 3.1 0 5.6 2.5 5.6 5.6 0 .8-.2 1.5-.5 2.3l-4.6 9.2c-.1.1-.3.3-.5.3z"/><circle class="st2" cx="676" cy="137.1" r="3.1"/><path class="st1" d="M664 184.8c-.2 0-.4-.1-.5-.3l-4.6-9.2c-.3-.7-.5-1.5-.5-2.3 0-3.1 2.5-5.6 5.6-5.6 3.1 0 5.6 2.5 5.6 5.6 0 .8-.2 1.5-.5 2.3l-4.6 9.2c-.1.2-.3.3-.5.3z"/><circle class="st2" cx="664" cy="173" r="3.1"/><path class="st1" d="M653.9 194c-.2 0-.4-.1-.5-.3l-4.6-9.2c-.3-.7-.5-1.5-.5-2.3 0-3.1 2.5-5.6 5.6-5.6 3.1 0 5.6 2.5 5.6 5.6 0 .8-.2 1.5-.5 2.3l-4.6 9.2c-.1.2-.3.3-.5.3z"/><circle class="st2" cx="653.9" cy="182.2" r="3.1"/><path class="st1" d="M645.8 207.1c-.2 0-.4-.1-.5-.3l-4.6-9.2c-.3-.7-.5-1.5-.5-2.3 0-3.1 2.5-5.6 5.6-5.6 3.1 0 5.6 2.5 5.6 5.6 0 .8-.2 1.5-.5 2.3l-4.6 9.2c-.1.2-.3.3-.5.3z"/><circle class="st2" cx="645.8" cy="195.3" r="3.1"/><g><path class="st1" d="M664 240.8c-.2 0-.4-.1-.5-.3l-4.6-9.2c-.3-.7-.5-1.5-.5-2.3 0-3.1 2.5-5.6 5.6-5.6 3.1 0 5.6 2.5 5.6 5.6 0 .8-.2 1.5-.5 2.3l-4.6 9.2c-.1.2-.3.3-.5.3z"/><circle class="st2" cx="664" cy="229" r="3.1"/></g><g><path class="st1" d="M662.1 258.7c-.2 0-.4-.1-.5-.3l-4.6-9.2c-.3-.7-.5-1.5-.5-2.3 0-3.1 2.5-5.6 5.6-5.6 3.1 0 5.6 2.5 5.6 5.6 0 .8-.2 1.5-.5 2.3l-4.6 9.2c-.1.1-.3.3-.5.3z"/><circle class="st2" cx="662.1" cy="246.8" r="3.1"/></g><g><path class="st1" d="M718.7 254.1c-.2 0-.4-.1-.5-.3l-4.6-9.2c-.3-.7-.5-1.5-.5-2.3 0-3.1 2.5-5.6 5.6-5.6 3.1 0 5.6 2.5 5.6 5.6 0 .8-.2 1.5-.5 2.3l-4.6 9.2c-.1.2-.3.3-.5.3z"/><circle class="st2" cx="718.7" cy="242.3" r="3.1"/></g><g><path class="st1" d="M730.1 259.9c-.2 0-.4-.1-.5-.3l-4.6-9.2c-.3-.7-.5-1.5-.5-2.3 0-3.1 2.5-5.6 5.6-5.6 3.1 0 5.6 2.5 5.6 5.6 0 .8-.2 1.5-.5 2.3l-4.6 9.2c-.1.2-.3.3-.5.3z"/><circle class="st2" cx="730.1" cy="248.1" r="3.1"/></g><g><path class="st1" d="M562.9 268.1c-.2 0-.4-.1-.5-.3l-4.6-9.2c-.3-.7-.5-1.5-.5-2.3 0-3.1 2.5-5.6 5.6-5.6 3.1 0 5.6 2.5 5.6 5.6 0 .8-.2 1.5-.5 2.3l-4.6 9.2c-.1.2-.3.3-.5.3z"/><circle class="st2" cx="562.9" cy="256.3" r="3.1"/></g><g><path class="st1" d="M221.6 333.3c-.2 0-.4-.1-.5-.3l-4.9-9.9c-.3-.8-.5-1.6-.5-2.4 0-3.3 2.7-6 6-6s6 2.7 6 6c0 .8-.2 1.6-.5 2.4l-4.9 9.9c-.2.2-.5.3-.7.3z"/><circle class="st2" cx="221.6" cy="320.7" r="3.3"/></g><g><path class="st1" d="M348.6 566.6c-.2 0-.4-.1-.5-.3l-4.9-9.9c-.3-.8-.5-1.6-.5-2.4 0-3.3 2.7-6 6-6s6 2.7 6 6c0 .8-.2 1.6-.5 2.4l-4.9 9.9c-.3.2-.5.3-.7.3z"/><circle class="st2" cx="348.6" cy="554" r="3.3"/></g></g></svg>