<svg id="Layer_1" xmlns="http://www.w3.org/2000/svg" viewBox="0 0 61.1 71.6"><style>.st0{fill:#95c648;stroke:#000;stroke-miterlimit:10}.st1{fill:#464646}</style><path class="st0" d="M25.2 48.3l-11-9.9-.6-2.5v-1.5l2.1-1.3h1.9l7.6 7.1 18-17.2 3 .5 1 2.5v2.6L26.7 48.3z"/><path class="st1" d="M60 12.4C50.1 9.7 40.2 5.5 31.3.2c-.5-.3-1.1-.3-1.5 0-9.2 5.4-18.6 9.4-28.7 12.2-.7.1-1.1.7-1.1 1.4v15.4C0 45 7.3 55.5 13.4 61.6c6.6 6.4 14.3 10 17.1 10S41 68 47.6 61.6c6.1-6 13.4-16.5 13.4-32.4V13.8c.1-.7-.4-1.3-1-1.4zm-1.9 16.8c0 14.8-6.8 24.6-12.5 30.2-6.5 6.4-13.4 9.2-15 9.2s-8.5-2.8-15-9.2C9.8 53.8 3 44 3 29.2V15c9.7-2.8 18.7-6.6 27.5-11.7 8.6 5 18.1 9 27.5 11.7l.1 14.2z"/><path class="st1" d="M17.2 14.8c-.3-.8-1.2-1.2-2-.9C12.5 15 9.8 16 7 16.8c-.6.2-1 .8-1 1.4V24c0 .8.7 1.5 1.5 1.5S9 24.9 9 24.1v-4.7c2.5-.8 4.9-1.7 7.4-2.6.7-.4 1.1-1.2.8-2zM20 15.1c.2 0 .4 0 .6-.1.8-.3 1.1-1.2.8-2-.3-.8-1.2-1.1-2-.8-.8.3-1.1 1.2-.8 2 .3.5.9.9 1.4.9zM48.5 48.6c-.7-.5-1.6-.3-2.1.4-1.2 1.9-2.7 3.7-4.3 5.4-1.3 1.4-2.8 2.7-4.3 3.8-.7.5-.8 1.5-.3 2.1.3.4.7.6 1.2.6.3 0 .6-.1.9-.3 1.7-1.3 3.2-2.6 4.7-4.1 1.8-1.8 3.3-3.8 4.7-5.8.4-.7.2-1.7-.5-2.1zM34.3 60.6c-.8.5-1 1.4-.6 2.1.3.5.8.8 1.3.8.3 0 .5-.1.8-.2l.1-.1c.7-.4 1-1.3.5-2.1-.5-.7-1.4-.9-2.1-.5zM20.3 32.7c-.9-.9-2.2-1.4-3.5-1.4s-2.5.5-3.5 1.4c-1.9 1.9-1.9 5 0 6.9l8.9 8.9c.9.9 2.2 1.4 3.5 1.4s2.5-.5 3.5-1.4L47.7 30c1.9-1.9 1.9-5 0-6.9-.9-.9-2.2-1.4-3.5-1.4s-2.5.5-3.5 1.4l-15 15.1-5.4-5.5zm22.6-7.5c.3-.3.8-.5 1.3-.5s1 .2 1.3.5c.7.7.7 1.9 0 2.7L27 46.4c-.3.3-.8.5-1.3.5s-1-.2-1.3-.5l-8.9-8.9c-.7-.7-.7-1.9 0-2.7.3-.3.8-.5 1.3-.5s1 .2 1.3.5l6.5 6.5c.3.3.7.4 1.1.4s.8-.2 1.1-.4l16.1-16.1z"/></svg>