<svg id="Layer_1" xmlns="http://www.w3.org/2000/svg" viewBox="0 0 76.7 85.4"><style>.st0{fill:#95c648;stroke:#000;stroke-miterlimit:10}.st1{fill:#ebebeb}.st2{fill:#f06c2f}.st3{fill:#464646}</style><path class="st2" d="M2 44.1v39.6h17.2l2.6-2.6V47.2L19 44.4z"/><path class="st3" d="M53.4 0c-.9 0-1.7.7-1.7 1.7v7.7c0 .9.7 1.7 1.7 1.7.9 0 1.7-.7 1.7-1.7V1.7c0-1-.8-1.7-1.7-1.7zM15 52.1c-.9 0-1.7.7-1.7 1.7s.7 1.7 1.7 1.7c.9 0 1.7-.7 1.7-1.7s-.8-1.7-1.7-1.7zM15 58.7c-.9 0-1.7.7-1.7 1.7v13.3c0 .9.7 1.7 1.7 1.7.9 0 1.7-.7 1.7-1.7V60.4c0-.9-.8-1.7-1.7-1.7zM40 21h-6.7c-.9 0-1.7.7-1.7 1.7 0 .9.7 1.7 1.7 1.7H40c.9 0 1.7-.7 1.7-1.7 0-.9-.7-1.7-1.7-1.7zM73.4 21h-6.7c-.9 0-1.7.7-1.7 1.7 0 .9.7 1.7 1.7 1.7h6.7c.9 0 1.7-.7 1.7-1.7 0-.9-.8-1.7-1.7-1.7zM68.7 7.4c-.7-.7-1.7-.7-2.4 0l-4.7 4.7c-.7.7-.7 1.7 0 2.4s1.7.7 2.4 0l4.7-4.7c.7-.7.7-1.8 0-2.4zM45.1 12.1l-4.7-4.7c-.7-.7-1.7-.7-2.4 0s-.7 1.7 0 2.4l4.7 4.7c.7.7 1.7.7 2.4 0s.7-1.8 0-2.4z"/><path class="st3" d="M76.7 48.7c0-3.7-3-6.7-6.7-6.7H57.6c1.9-4.9 2.7-10.8 2.6-15.9 0-1-.1-1.6-.1-1.9-.1-3.6-3-6.5-6.7-6.5s-6.7 3-6.7 6.7V26c0 10.6-13.5 16.5-23.8 19-.8-1.8-2.5-3-4.6-3H1.7c-1 0-1.7.8-1.7 1.7v40c0 .9.7 1.7 1.7 1.7h16.7c2 0 3.8-1.2 4.6-3l2.4.6c5.8 1.5 9 2.4 16.8 2.4h17.9c3.7 0 6.7-3 6.7-6.7 0-1.4-.4-2.6-1.1-3.7 2.6-.9 4.5-3.4 4.5-6.3 0-1.4-.4-2.6-1.1-3.7 2.6-.9 4.5-3.4 4.5-6.3 0-1.4-.4-2.6-1.1-3.7 2.4-.9 4.2-3.3 4.2-6.3zM20 80.4c0 .9-.7 1.7-1.7 1.7h-15V45.4h15c.9 0 1.7.7 1.7 1.7v33.3zm50.1-28.3h-8.3c-.9 0-1.7.7-1.7 1.7s.7 1.7 1.7 1.7h5c1.8 0 3.3 1.5 3.3 3.3 0 1.8-1.5 3.3-3.3 3.3h-8.3c-.9 0-1.7.7-1.7 1.7s.7 1.7 1.7 1.7h5c1.8 0 3.3 1.5 3.3 3.3 0 1.8-1.5 3.3-3.3 3.3h-8.3c-.9 0-1.7.7-1.7 1.7s.7 1.7 1.7 1.7h5c1.8 0 3.3 1.5 3.3 3.3 0 1.8-1.5 3.3-3.3 3.3H42.1c-7.4 0-10.3-.8-16-2.3-.8-.2-1.8-.5-2.8-.7V48.4C35.4 45.5 50 38.5 50 26v-1.7c0-1.8 1.5-3.3 3.3-3.3 1.8 0 3.3 1.5 3.3 3.3 0 .7.9 9.6-2.7 17.7h-5.6c-.9 0-1.7.7-1.7 1.7s.7 1.7 1.7 1.7H70c1.8 0 3.3 1.5 3.3 3.3.1 1.9-1.4 3.4-3.2 3.4z"/></svg>